<?xml version="1.0" encoding="UTF-8"?>
<svg version="1.1" xmlns="http://www.w3.org/2000/svg" width="900" height="900">
<path d="M0 0 C0.66 0.33 1.32 0.66 2 1 C2 1.66 2 2.32 2 3 C3.2065625 3.2475 3.2065625 3.2475 4.4375 3.5 C13.01429956 7.11128403 21.19851526 15.79216449 25.03125 24.28515625 C31.80205075 43.25977932 31.80205075 43.25977932 32 52 C32.02707031 52.94617188 32.05414063 53.89234375 32.08203125 54.8671875 C32.16123977 60.75742086 31.92030557 66.58488002 31.50268555 72.4597168 C30.96924498 80.50145248 30.83753293 88.52294545 30.83203125 96.58203125 C30.82807175 98.03471425 30.8239265 99.48739675 30.8196106 100.94007874 C30.81038439 104.77556256 30.80920766 108.61100203 30.81132126 112.44649506 C30.81250799 114.82852824 30.8119659 117.21055702 30.81130981 119.59259033 C30.81275557 144.04307644 31.31705827 168.40943577 32.86346436 192.81677246 C33.1097387 196.75474002 33.33660499 200.69385562 33.56640625 204.6328125 C33.65038458 206.06136582 33.73444144 207.48991453 33.81860352 208.91845703 C33.90839478 210.4438208 33.90839478 210.4438208 34 212 C37.7596862 204.75335637 41.08877318 197.36024879 44.3024292 189.85726929 C45.44053684 187.20107959 46.58597834 184.54807194 47.73098755 181.89485168 C48.31629733 180.53852036 48.90131961 179.18206494 49.48605347 177.82548523 C56.82377217 160.80393303 64.38146992 143.8874517 72.08789062 127.03027344 C75.51332033 119.52804865 78.89021281 112.00748946 82.19921875 104.453125 C82.90403852 102.84870795 83.60887242 101.2442971 84.3137207 99.63989258 C85.64550083 96.6071009 86.96669711 93.57000353 88.28198242 90.5300293 C92.59645993 80.65201157 97.55435189 71.30044152 103 62 C103.66 62 104.32 62 105 62 C105.309375 61.38125 105.61875 60.7625 105.9375 60.125 C106.625 58.75 107.3125 57.375 108 56 C108.66 56 109.32 56 110 56 C110.226875 55.443125 110.45375 54.88625 110.6875 54.3125 C112.37377267 51.34144815 114.530354 49.35477875 117 47 C117.70125 46.25621094 118.4025 45.51242188 119.125 44.74609375 C122.7403582 41.29283721 126.63133499 38.4123988 130.6875 35.5 C131.4904248 34.92266113 132.29334961 34.34532227 133.12060547 33.75048828 C150.21124622 21.63669742 170.30110189 15.88763536 191 14 C192.10601563 13.87753906 193.21203125 13.75507812 194.3515625 13.62890625 C204.84259315 12.55324361 213.45392521 14.23813545 223.546875 17.0625 C226.82044028 18.01384594 226.82044028 18.01384594 229.5078125 18.4140625 C232.96264342 19.22632682 235.9826908 20.77407616 239.125 22.375 C239.74503906 22.67921875 240.36507812 22.9834375 241.00390625 23.296875 C244.13823769 24.87415147 246.67414926 26.36599238 249 29 C249.886875 29.680625 250.77375 30.36125 251.6875 31.0625 C252.450625 31.701875 253.21375 32.34125 254 33 C254 33.66 254 34.32 254 35 C254.59039063 35.24492188 255.18078125 35.48984375 255.7890625 35.7421875 C264.01535505 40.42216312 267.84002051 52.34621208 270.47216797 60.98046875 C276.89213332 85.54381444 265.43975443 111.37312266 255.73291016 133.39086914 C252.7023898 140.29133116 249.93702288 147.23679615 247.359375 154.31640625 C245.97906667 158.05672451 244.50431036 161.7461129 243 165.4375 C240.36034089 171.95881059 237.99414508 178.55528271 235.68359375 185.19921875 C234.47395482 188.67045178 233.23185868 192.12847047 231.97265625 195.58203125 C222.83434004 220.65109728 214.60419787 245.95650541 206.84643555 271.48095703 C206.47273834 272.70816971 206.47273834 272.70816971 206.0914917 273.96017456 C205.62180732 275.50402868 205.15375111 277.04837937 204.68756104 278.59329224 C203.11098772 283.77802455 203.11098772 283.77802455 202 286 C206.5927391 282.25082523 210.54032859 278.38896215 214.37890625 273.875 C216.46650504 271.4604279 218.74354935 269.25645065 221 267 C221.9647654 265.85957704 222.92267446 264.71333139 223.875 263.5625 C226.48587908 260.45785364 229.32342927 257.89382698 232.484375 255.359375 C234.25912951 253.8811002 234.25912951 253.8811002 236 251 C236.66 251 237.32 251 238 251 C238.268125 250.41734375 238.53625 249.8346875 238.8125 249.234375 C240.01480991 246.97213399 241.33825913 245.19423682 243 243.25 C243.515625 242.63640625 244.03125 242.0228125 244.5625 241.390625 C246 240 246 240 248 240 C248.28875 239.401875 248.5775 238.80375 248.875 238.1875 C250 236 250 236 252 233 C252.66 233 253.32 233 254 233 C254.268125 232.41734375 254.53625 231.8346875 254.8125 231.234375 C256.01480991 228.97213399 257.33825913 227.19423682 259 225.25 C259.515625 224.63640625 260.03125 224.0228125 260.5625 223.390625 C262 222 262 222 264 222 C264.28875 221.401875 264.5775 220.80375 264.875 220.1875 C266 218 266 218 268 215 C268.66 215 269.32 215 270 215 C270.26296875 214.42765625 270.5259375 213.8553125 270.796875 213.265625 C272.0767023 210.85556061 273.54804648 208.88127512 275.25 206.75 C277.56291787 203.84096928 279.78609097 200.90465545 281.9375 197.875 C284.61692093 194.27139378 287.67801398 191.46799308 291.1171875 188.59765625 C293.20099787 186.87969796 293.20099787 186.87969796 295.6875 184.25 C298.04237346 181.95877177 300.12150853 180.57008626 303 179 C303.66 178.61972656 304.32 178.23945313 305 177.84765625 C320.74093935 168.85673777 336.93251546 164.19313577 355 163 C356.155 162.9175 357.31 162.835 358.5 162.75 C368.10874061 163.43633862 381.28162238 167.09853347 388.75 173.5 C390 175 390 175 390 177 C391.32 177.33 392.64 177.66 394 178 C394.33 179.32 394.66 180.64 395 182 C395.66 182 396.32 182 397 182 C397.33 183.32 397.66 184.64 398 186 C398.66 186 399.32 186 400 186 C400.66 188.31 401.32 190.62 402 193 C402.66 193 403.32 193 404 193 C410.86188665 221.4278161 403.74367723 238.11344909 389.83203125 262.87890625 C387.05255756 267.83809757 384.4950795 272.89272362 382 278 C381.34 278 380.68 278 380 278 C379.78214844 278.79019531 379.56429687 279.58039063 379.33984375 280.39453125 C377.57502282 285.14359747 375.11408566 289.32182752 372.5625 293.6875 C372.02898926 294.61014648 371.49547852 295.53279297 370.94580078 296.48339844 C369.8403961 298.39377285 368.73263219 300.30278401 367.62255859 302.21044922 C366.11349449 304.80487691 364.61171644 307.40332913 363.11328125 310.00390625 C358.26746155 318.4076116 353.38270967 326.78762341 348.43505859 335.13183594 C345.99629847 339.25705012 343.64331406 343.42233582 341.32568359 347.61669922 C338.42299351 352.83512658 335.43164707 358.00370168 332.4609375 363.18359375 C322.65842004 380.30029731 313.2352382 397.63983141 304.0625 415.1015625 C302.77446834 417.54954088 301.46157585 419.97589378 300.125 422.3984375 C291.04196991 438.93712145 282.95107866 456.30448265 276.1875 473.91796875 C275.03113726 476.91918653 273.7778996 479.86135061 272.5 482.8125 C267.29699906 495.35306638 263.63918438 507.9564324 260.89453125 521.24365234 C258.78903559 531.32354516 255.98296654 541.14932041 253 551 C252.67515625 552.084021 252.67515625 552.084021 252.34375 553.18994141 C250.95432956 557.81302083 249.49633702 562.41053228 248 567 C247.80003418 567.62664551 247.60006836 568.25329102 247.39404297 568.89892578 C241.18673292 588.19908932 232.42684468 606.64834083 223.125 624.625 C222.60220459 625.63691406 222.07940918 626.64882813 221.54077148 627.69140625 C218.3630059 633.72404931 214.86439762 639.38715327 211 645 C209.846546 646.78677008 208.69933485 648.57761023 207.5625 650.375 C206.69238281 651.74205078 206.69238281 651.74205078 205.8046875 653.13671875 C204.5474021 655.13150274 203.30359998 657.13482189 202.0703125 659.14453125 C201.44898438 660.14871094 200.82765625 661.15289063 200.1875 662.1875 C199.62417969 663.10917969 199.06085937 664.03085937 198.48046875 664.98046875 C197.99191406 665.64691406 197.50335937 666.31335938 197 667 C196.34 667 195.68 667 195 667 C194.71125 667.763125 194.4225 668.52625 194.125 669.3125 C193 672 193 672 191 675 C190.34 675 189.68 675 189 675 C188.731875 675.556875 188.46375 676.11375 188.1875 676.6875 C185.90485382 681.13265309 183.58541817 684.51702235 180 688 C178.43755365 689.85565608 176.89511361 691.72519669 175.3671875 693.609375 C174.91601562 694.06828125 174.46484375 694.5271875 174 695 C173.34 695 172.68 695 172 695 C171.72414063 695.59167969 171.44828125 696.18335938 171.1640625 696.79296875 C167.65984051 703.43687956 161.64947225 708.23027671 156 713 C154.60119186 714.20488834 153.20530684 715.41317936 151.8125 716.625 C151.20019531 717.15351562 150.58789062 717.68203125 149.95703125 718.2265625 C147.91660077 720.03066869 147.91660077 720.03066869 145.84765625 722.26953125 C142.03998761 725.9205057 137.88097352 728.95616639 133.625 732.0625 C132.8 732.67416016 131.975 733.28582031 131.125 733.91601562 C126.54728438 737.27664019 121.95985055 740.24251618 117 743 C115.31656182 744.14233305 113.64812241 745.30727983 112 746.5 C105.64027791 751.00560372 98.98750549 754.57107978 92 758 C90.576875 758.7115625 90.576875 758.7115625 89.125 759.4375 C88.09375 759.953125 87.0625 760.46875 86 761 C85.20207031 761.40476562 84.40414063 761.80953125 83.58203125 762.2265625 C82.70933594 762.66742187 81.83664062 763.10828125 80.9375 763.5625 C79.71353516 764.18318359 79.71353516 764.18318359 78.46484375 764.81640625 C76.01309513 765.99371185 73.53592088 767.0190823 71 768 C71.10699219 768.6084375 71.21398437 769.216875 71.32421875 769.84375 C73.28213245 784.15967809 69.42452468 797.42745823 61.4375 809.328125 C60.963125 809.87984375 60.48875 810.4315625 60 811 C59.34 811 58.68 811 58 811 C57.78988281 811.56460938 57.57976562 812.12921875 57.36328125 812.7109375 C55.49782182 815.8431989 53.11330333 817.46762591 50.1875 819.625 C49.14980469 820.40101563 48.11210937 821.17703125 47.04296875 821.9765625 C44.33661269 823.77616769 42.03865344 824.91990992 39 826 C37.0828317 826.81131564 35.16619114 827.62387916 33.25 828.4375 C3.52439909 840.74519432 -26.9175881 841.12281252 -57.99609375 833.7109375 C-60.4091697 833.1398324 -62.8210641 832.62108325 -65.25 832.125 C-71.89794355 830.65854186 -78.3997295 828.59040053 -84.91357422 826.62597656 C-86.79503638 826.06149388 -88.68050024 825.51039095 -90.56640625 824.9609375 C-96.88530178 823.09036193 -102.92142369 820.90457482 -108.953125 818.24609375 C-111.4125603 817.24024777 -113.83193117 816.38077647 -116.35546875 815.5625 C-120.71208442 814.13311299 -124.88205159 812.44084248 -129.0625 810.5625 C-129.80765869 810.22903564 -130.55281738 809.89557129 -131.32055664 809.55200195 C-138.26124846 806.404569 -145.10813031 803.06862466 -151.9375 799.6875 C-152.98623291 799.17195557 -154.03496582 798.65641113 -155.11547852 798.12524414 C-156.09701904 797.63403076 -157.07855957 797.14281738 -158.08984375 796.63671875 C-159.40263306 795.98255981 -159.40263306 795.98255981 -160.74194336 795.31518555 C-162.89671352 794.06015832 -164.29803157 792.79393381 -166 791 C-167.93564965 789.83640434 -169.89702918 788.71510362 -171.875 787.625 C-176.28922835 785.10867659 -179.65660368 782.78918249 -183 779 C-183.66 778.67 -184.32 778.34 -185 778 C-185 777.34 -185 776.68 -185 776 C-185.58007812 775.75636719 -186.16015625 775.51273438 -186.7578125 775.26171875 C-189.39371214 773.77845119 -190.90920072 772.1059325 -192.875 769.8125 C-193.57109375 769.00296875 -194.2671875 768.1934375 -194.984375 767.359375 C-195.98210937 766.19148437 -195.98210937 766.19148437 -197 765 C-197.54140625 764.40703125 -198.0828125 763.8140625 -198.640625 763.203125 C-202.84665579 758.55435413 -205.96162062 753.46908289 -209 748 C-209.50660156 747.11699219 -210.01320312 746.23398437 -210.53515625 745.32421875 C-218.86046248 729.92985455 -222.80700542 713.08705178 -218.4375 695.875 C-215.82185229 687.63430344 -211.78989891 680.18484836 -207 673 C-206.34 673 -205.68 673 -205 673 C-209.42429811 665.77173114 -213.87952767 658.57014216 -218.45703125 651.4375 C-218.96621094 650.633125 -219.47539062 649.82875 -220 649 C-220.56074219 648.13375 -221.12148437 647.2675 -221.69921875 646.375 C-223 644 -223 644 -223 641 C-223.66 641 -224.32 641 -225 641 C-226.4606285 638.35261084 -227 637.10551666 -227 634 C-227.66 634 -228.32 634 -229 634 C-240 613.73033708 -240 613.73033708 -240 611 C-240.66 611 -241.32 611 -242 611 C-242.66 608.69 -243.32 606.38 -244 604 C-244.66 604 -245.32 604 -246 604 C-246.10570312 603.4534375 -246.21140625 602.906875 -246.3203125 602.34375 C-247.15154279 599.47743867 -248.43276691 597.1118052 -249.875 594.5 C-250.38804687 593.5615625 -250.90109375 592.623125 -251.4296875 591.65625 C-252.90487072 589.0131723 -252.90487072 589.0131723 -254.6953125 586.90625 C-256 585 -256 585 -256 581 C-256.66 581 -257.32 581 -258 581 C-258.66 578.69 -259.32 576.38 -260 574 C-260.66 574 -261.32 574 -262 574 C-263.55078125 571.65625 -263.55078125 571.65625 -265.3125 568.5 C-267.44191866 564.73119626 -269.58917624 561.01154707 -271.9375 557.375 C-274 554 -274 554 -274 552 C-274.66 552 -275.32 552 -276 552 C-280 547.52941176 -280 547.52941176 -280 545 C-280.79204834 544.76659912 -281.58409668 544.53319824 -282.40014648 544.29272461 C-286.99141598 542.64397778 -291.24583738 540.51024483 -295.59765625 538.31640625 C-296.50954208 537.86023422 -297.42142792 537.40406219 -298.36094666 536.93406677 C-300.28235361 535.97185726 -302.20279165 535.00771081 -304.12231445 534.04174805 C-307.05386604 532.56684386 -309.98856788 531.09836661 -312.92382812 529.63085938 C-314.79445996 528.69308551 -316.66490892 527.75494672 -318.53515625 526.81640625 C-319.40922623 526.37881485 -320.2832962 525.94122345 -321.18385315 525.4903717 C-330.17478176 520.95997934 -330.17478176 520.95997934 -333 519 C-333 518.34 -333 517.68 -333 517 C-333.845625 516.7525 -334.69125 516.505 -335.5625 516.25 C-339.38427474 514.86026373 -342.51868063 513.08879162 -346 511 C-346 510.34 -346 509.68 -346 509 C-346.86882812 508.7421875 -347.73765625 508.484375 -348.6328125 508.21875 C-352.05874315 506.97873798 -354.8109168 505.45968465 -357.875 503.5 C-358.84179688 502.8915625 -359.80859375 502.283125 -360.8046875 501.65625 C-361.89136719 500.83640625 -361.89136719 500.83640625 -363 500 C-363 499.34 -363 498.68 -363 498 C-364.0828125 497.5978125 -364.0828125 497.5978125 -365.1875 497.1875 C-369.69397458 495.28476629 -373.03650945 493.12098698 -376.42578125 489.58203125 C-380.60628737 485.3807782 -385.08863209 481.37303951 -389.68212891 477.62890625 C-393.97524113 474.09961367 -397.37701358 470.37875715 -400.625 465.875 C-401.0986499 465.22120361 -401.5722998 464.56740723 -402.06030273 463.89379883 C-408.02645724 455.41536215 -411.76376109 446.32426546 -413 436 C-413.14308594 434.83597656 -413.14308594 434.83597656 -413.2890625 433.6484375 C-413.94279267 423.0855343 -409.20906219 413.00523537 -403.33203125 404.4765625 C-402.89246094 403.98929687 -402.45289063 403.50203125 -402 403 C-401.34 403 -400.68 403 -400 403 C-399.72414063 402.40832031 -399.44828125 401.81664062 -399.1640625 401.20703125 C-396.09173105 395.3819733 -391.07700556 391.01123352 -386.11328125 386.8046875 C-384.71194059 385.60797884 -383.33355182 384.38382547 -381.98046875 383.1328125 C-370.26763044 372.31093221 -356.81013682 363.35706318 -342.22265625 356.9765625 C-340.30424313 356.13367449 -338.4005613 355.25740346 -336.5 354.375 C-332.38609112 352.75882151 -328.32642636 351.84082491 -324 351 C-323.23300781 350.83886719 -322.46601563 350.67773438 -321.67578125 350.51171875 C-303.35659456 347.00834144 -285.7740072 346.95271679 -268.296875 354.1328125 C-266.03496946 355.07071182 -266.03496946 355.07071182 -263.67016602 355.39501953 C-260.75113682 356.05638502 -258.59808325 357.10360381 -255.98046875 358.546875 C-255.04009766 359.0625 -254.09972656 359.578125 -253.13085938 360.109375 C-252.15955078 360.65078125 -251.18824219 361.1921875 -250.1875 361.75 C-249.22779297 362.2759375 -248.26808594 362.801875 -247.27929688 363.34375 C-241.74480523 366.39622048 -236.2360425 369.455602 -231 373 C-231 373.66 -231 374.32 -231 375 C-230.278125 375.268125 -229.55625 375.53625 -228.8125 375.8125 C-223.46573236 378.07002411 -220.081514 380.918486 -216 385 C-214.55187205 386.1175176 -213.0925166 387.22056815 -211.625 388.3125 C-207.11734866 391.75688475 -203.5659728 395.60973197 -200 400 C-196.34714238 404.44604956 -192.54137829 408.57469427 -188.375 412.55078125 C-182.77396863 417.98928269 -177.3067746 423.85414075 -174 431 C-173.34 431 -172.68 431 -172 431 C-171.34 431.66 -170.68 432.32 -170 433 C-158.15377269 395.92827688 -152.95048365 355.61646497 -149 317 C-148.91598938 316.18378174 -148.83197876 315.36756348 -148.74542236 314.52661133 C-146.03698907 288.07109992 -144.16975632 261.63792635 -143.08532715 235.06793213 C-142.96161593 232.06974914 -142.82803322 229.0720146 -142.6953125 226.07421875 C-142.03431409 210.76169082 -141.58827197 195.44110508 -141.125 180.12158203 C-141.00172858 176.04844863 -140.87629153 171.97538453 -140.75 167.90234375 C-140.72946564 167.23829529 -140.70893127 166.57424683 -140.68777466 165.89007568 C-140.58427209 162.55213065 -140.47900639 159.21425457 -140.37060547 155.87646484 C-140.1590848 149.31771555 -139.96711025 142.75975845 -139.8203125 136.19921875 C-138.90431347 98.3571592 -134.81540283 56.06695081 -106 28 C-105.21625 27.01 -104.4325 26.02 -103.625 25 C-101.12234922 22.13982768 -98.80639294 20.3169117 -95.6953125 18.22265625 C-93.74450748 16.88441749 -93.74450748 16.88441749 -91.375 14.375 C-82.33692684 5.33692684 -65.50002413 -2.52511398 -53 -4 C-34.84135767 -8.84230462 -17.37110189 -8.11870446 0 0 Z " fill="#FEFEFE" transform="translate(449,34)"/>
<path d="M0 0 C0.66 0.33 1.32 0.66 2 1 C2 1.66 2 2.32 2 3 C3.2065625 3.2475 3.2065625 3.2475 4.4375 3.5 C13.01429956 7.11128403 21.19851526 15.79216449 25.03125 24.28515625 C31.80205075 43.25977932 31.80205075 43.25977932 32 52 C32.02707031 52.94617188 32.05414063 53.89234375 32.08203125 54.8671875 C32.16123977 60.75742086 31.92030557 66.58488002 31.50268555 72.4597168 C30.96924498 80.50145248 30.83753293 88.52294545 30.83203125 96.58203125 C30.82807175 98.03471425 30.8239265 99.48739675 30.8196106 100.94007874 C30.81038439 104.77556256 30.80920766 108.61100203 30.81132126 112.44649506 C30.81250799 114.82852824 30.8119659 117.21055702 30.81130981 119.59259033 C30.81275557 144.04307644 31.31705827 168.40943577 32.86346436 192.81677246 C33.1097387 196.75474002 33.33660499 200.69385562 33.56640625 204.6328125 C33.65038458 206.06136582 33.73444144 207.48991453 33.81860352 208.91845703 C33.90839478 210.4438208 33.90839478 210.4438208 34 212 C37.7596862 204.75335637 41.08877318 197.36024879 44.3024292 189.85726929 C45.44053684 187.20107959 46.58597834 184.54807194 47.73098755 181.89485168 C48.31629733 180.53852036 48.90131961 179.18206494 49.48605347 177.82548523 C56.82377217 160.80393303 64.38146992 143.8874517 72.08789062 127.03027344 C75.51332033 119.52804865 78.89021281 112.00748946 82.19921875 104.453125 C82.90403852 102.84870795 83.60887242 101.2442971 84.3137207 99.63989258 C85.64550083 96.6071009 86.96669711 93.57000353 88.28198242 90.5300293 C92.59645993 80.65201157 97.55435189 71.30044152 103 62 C103.66 62 104.32 62 105 62 C105.309375 61.38125 105.61875 60.7625 105.9375 60.125 C106.625 58.75 107.3125 57.375 108 56 C108.66 56 109.32 56 110 56 C110.226875 55.443125 110.45375 54.88625 110.6875 54.3125 C112.37377267 51.34144815 114.530354 49.35477875 117 47 C117.70125 46.25621094 118.4025 45.51242188 119.125 44.74609375 C122.7403582 41.29283721 126.63133499 38.4123988 130.6875 35.5 C131.4904248 34.92266113 132.29334961 34.34532227 133.12060547 33.75048828 C150.21124622 21.63669742 170.30110189 15.88763536 191 14 C192.10601563 13.87753906 193.21203125 13.75507812 194.3515625 13.62890625 C204.84259315 12.55324361 213.45392521 14.23813545 223.546875 17.0625 C226.82044028 18.01384594 226.82044028 18.01384594 229.5078125 18.4140625 C232.96264342 19.22632682 235.9826908 20.77407616 239.125 22.375 C239.74503906 22.67921875 240.36507812 22.9834375 241.00390625 23.296875 C244.13823769 24.87415147 246.67414926 26.36599238 249 29 C249.886875 29.680625 250.77375 30.36125 251.6875 31.0625 C252.450625 31.701875 253.21375 32.34125 254 33 C254 33.66 254 34.32 254 35 C254.59039063 35.24492188 255.18078125 35.48984375 255.7890625 35.7421875 C264.01535505 40.42216312 267.84002051 52.34621208 270.47216797 60.98046875 C276.89213332 85.54381444 265.43975443 111.37312266 255.73291016 133.39086914 C252.7023898 140.29133116 249.93702288 147.23679615 247.359375 154.31640625 C245.97906667 158.05672451 244.50431036 161.7461129 243 165.4375 C240.36034089 171.95881059 237.99414508 178.55528271 235.68359375 185.19921875 C234.47395482 188.67045178 233.23185868 192.12847047 231.97265625 195.58203125 C222.83434004 220.65109728 214.60419787 245.95650541 206.84643555 271.48095703 C206.47273834 272.70816971 206.47273834 272.70816971 206.0914917 273.96017456 C205.62180732 275.50402868 205.15375111 277.04837937 204.68756104 278.59329224 C203.11098772 283.77802455 203.11098772 283.77802455 202 286 C206.5927391 282.25082523 210.54032859 278.38896215 214.37890625 273.875 C216.46650504 271.4604279 218.74354935 269.25645065 221 267 C221.9647654 265.85957704 222.92267446 264.71333139 223.875 263.5625 C226.48587908 260.45785364 229.32342927 257.89382698 232.484375 255.359375 C234.25912951 253.8811002 234.25912951 253.8811002 236 251 C236.66 251 237.32 251 238 251 C238.268125 250.41734375 238.53625 249.8346875 238.8125 249.234375 C240.01480991 246.97213399 241.33825913 245.19423682 243 243.25 C243.515625 242.63640625 244.03125 242.0228125 244.5625 241.390625 C246 240 246 240 248 240 C248.28875 239.401875 248.5775 238.80375 248.875 238.1875 C250 236 250 236 252 233 C252.66 233 253.32 233 254 233 C254.268125 232.41734375 254.53625 231.8346875 254.8125 231.234375 C256.01480991 228.97213399 257.33825913 227.19423682 259 225.25 C259.515625 224.63640625 260.03125 224.0228125 260.5625 223.390625 C262 222 262 222 264 222 C264.28875 221.401875 264.5775 220.80375 264.875 220.1875 C266 218 266 218 268 215 C268.66 215 269.32 215 270 215 C270.26296875 214.42765625 270.5259375 213.8553125 270.796875 213.265625 C272.0767023 210.85556061 273.54804648 208.88127512 275.25 206.75 C277.56291787 203.84096928 279.78609097 200.90465545 281.9375 197.875 C284.61692093 194.27139378 287.67801398 191.46799308 291.1171875 188.59765625 C293.20099787 186.87969796 293.20099787 186.87969796 295.6875 184.25 C298.04237346 181.95877177 300.12150853 180.57008626 303 179 C303.66 178.61972656 304.32 178.23945313 305 177.84765625 C320.74093935 168.85673777 336.93251546 164.19313577 355 163 C356.155 162.9175 357.31 162.835 358.5 162.75 C368.10874061 163.43633862 381.28162238 167.09853347 388.75 173.5 C390 175 390 175 390 177 C391.32 177.33 392.64 177.66 394 178 C394.33 179.32 394.66 180.64 395 182 C395.66 182 396.32 182 397 182 C397.33 183.32 397.66 184.64 398 186 C398.66 186 399.32 186 400 186 C400.66 188.31 401.32 190.62 402 193 C402.66 193 403.32 193 404 193 C410.86188665 221.4278161 403.74367723 238.11344909 389.83203125 262.87890625 C387.05255756 267.83809757 384.4950795 272.89272362 382 278 C381.34 278 380.68 278 380 278 C379.78214844 278.79019531 379.56429687 279.58039063 379.33984375 280.39453125 C377.57502282 285.14359747 375.11408566 289.32182752 372.5625 293.6875 C372.02898926 294.61014648 371.49547852 295.53279297 370.94580078 296.48339844 C369.8403961 298.39377285 368.73263219 300.30278401 367.62255859 302.21044922 C366.11349449 304.80487691 364.61171644 307.40332913 363.11328125 310.00390625 C358.26746155 318.4076116 353.38270967 326.78762341 348.43505859 335.13183594 C345.99629847 339.25705012 343.64331406 343.42233582 341.32568359 347.61669922 C338.42299351 352.83512658 335.43164707 358.00370168 332.4609375 363.18359375 C322.65842004 380.30029731 313.2352382 397.63983141 304.0625 415.1015625 C302.77446834 417.54954088 301.46157585 419.97589378 300.125 422.3984375 C291.04196991 438.93712145 282.95107866 456.30448265 276.1875 473.91796875 C275.03113726 476.91918653 273.7778996 479.86135061 272.5 482.8125 C267.29699906 495.35306638 263.63918438 507.9564324 260.89453125 521.24365234 C258.78903559 531.32354516 255.98296654 541.14932041 253 551 C252.67515625 552.084021 252.67515625 552.084021 252.34375 553.18994141 C250.95432956 557.81302083 249.49633702 562.41053228 248 567 C247.80003418 567.62664551 247.60006836 568.25329102 247.39404297 568.89892578 C241.18673292 588.19908932 232.42684468 606.64834083 223.125 624.625 C222.60220459 625.63691406 222.07940918 626.64882813 221.54077148 627.69140625 C218.3630059 633.72404931 214.86439762 639.38715327 211 645 C209.846546 646.78677008 208.69933485 648.57761023 207.5625 650.375 C206.69238281 651.74205078 206.69238281 651.74205078 205.8046875 653.13671875 C204.5474021 655.13150274 203.30359998 657.13482189 202.0703125 659.14453125 C201.44898438 660.14871094 200.82765625 661.15289063 200.1875 662.1875 C199.62417969 663.10917969 199.06085937 664.03085937 198.48046875 664.98046875 C197.99191406 665.64691406 197.50335937 666.31335938 197 667 C196.34 667 195.68 667 195 667 C194.71125 667.763125 194.4225 668.52625 194.125 669.3125 C193 672 193 672 191 675 C190.34 675 189.68 675 189 675 C188.731875 675.556875 188.46375 676.11375 188.1875 676.6875 C185.90485382 681.13265309 183.58541817 684.51702235 180 688 C178.43755365 689.85565608 176.89511361 691.72519669 175.3671875 693.609375 C174.91601562 694.06828125 174.46484375 694.5271875 174 695 C173.34 695 172.68 695 172 695 C171.72414063 695.59167969 171.44828125 696.18335938 171.1640625 696.79296875 C167.65984051 703.43687956 161.64947225 708.23027671 156 713 C154.60119186 714.20488834 153.20530684 715.41317936 151.8125 716.625 C151.20019531 717.15351562 150.58789062 717.68203125 149.95703125 718.2265625 C147.91660077 720.03066869 147.91660077 720.03066869 145.84765625 722.26953125 C142.03998761 725.9205057 137.88097352 728.95616639 133.625 732.0625 C132.8 732.67416016 131.975 733.28582031 131.125 733.91601562 C126.54728438 737.27664019 121.95985055 740.24251618 117 743 C115.31656182 744.14233305 113.64812241 745.30727983 112 746.5 C105.64027791 751.00560372 98.98750549 754.57107978 92 758 C90.576875 758.7115625 90.576875 758.7115625 89.125 759.4375 C88.09375 759.953125 87.0625 760.46875 86 761 C85.20207031 761.40476562 84.40414063 761.80953125 83.58203125 762.2265625 C82.70933594 762.66742187 81.83664062 763.10828125 80.9375 763.5625 C79.71353516 764.18318359 79.71353516 764.18318359 78.46484375 764.81640625 C76.01309513 765.99371185 73.53592088 767.0190823 71 768 C71.10699219 768.6084375 71.21398437 769.216875 71.32421875 769.84375 C73.28213245 784.15967809 69.42452468 797.42745823 61.4375 809.328125 C60.963125 809.87984375 60.48875 810.4315625 60 811 C59.34 811 58.68 811 58 811 C57.78988281 811.56460938 57.57976562 812.12921875 57.36328125 812.7109375 C55.49782182 815.8431989 53.11330333 817.46762591 50.1875 819.625 C49.14980469 820.40101563 48.11210937 821.17703125 47.04296875 821.9765625 C44.33661269 823.77616769 42.03865344 824.91990992 39 826 C37.0828317 826.81131564 35.16619114 827.62387916 33.25 828.4375 C3.52439909 840.74519432 -26.9175881 841.12281252 -57.99609375 833.7109375 C-60.4091697 833.1398324 -62.8210641 832.62108325 -65.25 832.125 C-71.89794355 830.65854186 -78.3997295 828.59040053 -84.91357422 826.62597656 C-86.79503638 826.06149388 -88.68050024 825.51039095 -90.56640625 824.9609375 C-96.88530178 823.09036193 -102.92142369 820.90457482 -108.953125 818.24609375 C-111.4125603 817.24024777 -113.83193117 816.38077647 -116.35546875 815.5625 C-120.71208442 814.13311299 -124.88205159 812.44084248 -129.0625 810.5625 C-129.80765869 810.22903564 -130.55281738 809.89557129 -131.32055664 809.55200195 C-138.26124846 806.404569 -145.10813031 803.06862466 -151.9375 799.6875 C-152.98623291 799.17195557 -154.03496582 798.65641113 -155.11547852 798.12524414 C-156.09701904 797.63403076 -157.07855957 797.14281738 -158.08984375 796.63671875 C-159.40263306 795.98255981 -159.40263306 795.98255981 -160.74194336 795.31518555 C-162.89671352 794.06015832 -164.29803157 792.79393381 -166 791 C-167.93564965 789.83640434 -169.89702918 788.71510362 -171.875 787.625 C-176.28922835 785.10867659 -179.65660368 782.78918249 -183 779 C-183.66 778.67 -184.32 778.34 -185 778 C-185 777.34 -185 776.68 -185 776 C-185.58007812 775.75636719 -186.16015625 775.51273438 -186.7578125 775.26171875 C-189.39371214 773.77845119 -190.90920072 772.1059325 -192.875 769.8125 C-193.57109375 769.00296875 -194.2671875 768.1934375 -194.984375 767.359375 C-195.98210937 766.19148437 -195.98210937 766.19148437 -197 765 C-197.54140625 764.40703125 -198.0828125 763.8140625 -198.640625 763.203125 C-202.84665579 758.55435413 -205.96162062 753.46908289 -209 748 C-209.50660156 747.11699219 -210.01320312 746.23398437 -210.53515625 745.32421875 C-218.86046248 729.92985455 -222.80700542 713.08705178 -218.4375 695.875 C-215.82185229 687.63430344 -211.78989891 680.18484836 -207 673 C-206.34 673 -205.68 673 -205 673 C-209.42429811 665.77173114 -213.87952767 658.57014216 -218.45703125 651.4375 C-218.96621094 650.633125 -219.47539062 649.82875 -220 649 C-220.56074219 648.13375 -221.12148437 647.2675 -221.69921875 646.375 C-223 644 -223 644 -223 641 C-223.66 641 -224.32 641 -225 641 C-226.4606285 638.35261084 -227 637.10551666 -227 634 C-227.66 634 -228.32 634 -229 634 C-240 613.73033708 -240 613.73033708 -240 611 C-240.66 611 -241.32 611 -242 611 C-242.66 608.69 -243.32 606.38 -244 604 C-244.66 604 -245.32 604 -246 604 C-246.10570312 603.4534375 -246.21140625 602.906875 -246.3203125 602.34375 C-247.15154279 599.47743867 -248.43276691 597.1118052 -249.875 594.5 C-250.38804687 593.5615625 -250.90109375 592.623125 -251.4296875 591.65625 C-252.90487072 589.0131723 -252.90487072 589.0131723 -254.6953125 586.90625 C-256 585 -256 585 -256 581 C-256.66 581 -257.32 581 -258 581 C-258.66 578.69 -259.32 576.38 -260 574 C-260.66 574 -261.32 574 -262 574 C-263.55078125 571.65625 -263.55078125 571.65625 -265.3125 568.5 C-267.44191866 564.73119626 -269.58917624 561.01154707 -271.9375 557.375 C-274 554 -274 554 -274 552 C-274.66 552 -275.32 552 -276 552 C-280 547.52941176 -280 547.52941176 -280 545 C-280.79204834 544.76659912 -281.58409668 544.53319824 -282.40014648 544.29272461 C-286.99141598 542.64397778 -291.24583738 540.51024483 -295.59765625 538.31640625 C-296.50954208 537.86023422 -297.42142792 537.40406219 -298.36094666 536.93406677 C-300.28235361 535.97185726 -302.20279165 535.00771081 -304.12231445 534.04174805 C-307.05386604 532.56684386 -309.98856788 531.09836661 -312.92382812 529.63085938 C-314.79445996 528.69308551 -316.66490892 527.75494672 -318.53515625 526.81640625 C-319.40922623 526.37881485 -320.2832962 525.94122345 -321.18385315 525.4903717 C-330.17478176 520.95997934 -330.17478176 520.95997934 -333 519 C-333 518.34 -333 517.68 -333 517 C-333.845625 516.7525 -334.69125 516.505 -335.5625 516.25 C-339.38427474 514.86026373 -342.51868063 513.08879162 -346 511 C-346 510.34 -346 509.68 -346 509 C-346.86882812 508.7421875 -347.73765625 508.484375 -348.6328125 508.21875 C-352.05874315 506.97873798 -354.8109168 505.45968465 -357.875 503.5 C-358.84179688 502.8915625 -359.80859375 502.283125 -360.8046875 501.65625 C-361.89136719 500.83640625 -361.89136719 500.83640625 -363 500 C-363 499.34 -363 498.68 -363 498 C-364.0828125 497.5978125 -364.0828125 497.5978125 -365.1875 497.1875 C-369.69397458 495.28476629 -373.03650945 493.12098698 -376.42578125 489.58203125 C-380.60628737 485.3807782 -385.08863209 481.37303951 -389.68212891 477.62890625 C-393.97524113 474.09961367 -397.37701358 470.37875715 -400.625 465.875 C-401.0986499 465.22120361 -401.5722998 464.56740723 -402.06030273 463.89379883 C-408.02645724 455.41536215 -411.76376109 446.32426546 -413 436 C-413.14308594 434.83597656 -413.14308594 434.83597656 -413.2890625 433.6484375 C-413.94279267 423.0855343 -409.20906219 413.00523537 -403.33203125 404.4765625 C-402.89246094 403.98929687 -402.45289063 403.50203125 -402 403 C-401.34 403 -400.68 403 -400 403 C-399.72414063 402.40832031 -399.44828125 401.81664062 -399.1640625 401.20703125 C-396.09173105 395.3819733 -391.07700556 391.01123352 -386.11328125 386.8046875 C-384.71194059 385.60797884 -383.33355182 384.38382547 -381.98046875 383.1328125 C-370.26763044 372.31093221 -356.81013682 363.35706318 -342.22265625 356.9765625 C-340.30424313 356.13367449 -338.4005613 355.25740346 -336.5 354.375 C-332.38609112 352.75882151 -328.32642636 351.84082491 -324 351 C-323.23300781 350.83886719 -322.46601563 350.67773438 -321.67578125 350.51171875 C-303.35659456 347.00834144 -285.7740072 346.95271679 -268.296875 354.1328125 C-266.03496946 355.07071182 -266.03496946 355.07071182 -263.67016602 355.39501953 C-260.75113682 356.05638502 -258.59808325 357.10360381 -255.98046875 358.546875 C-255.04009766 359.0625 -254.09972656 359.578125 -253.13085938 360.109375 C-252.15955078 360.65078125 -251.18824219 361.1921875 -250.1875 361.75 C-249.22779297 362.2759375 -248.26808594 362.801875 -247.27929688 363.34375 C-241.74480523 366.39622048 -236.2360425 369.455602 -231 373 C-231 373.66 -231 374.32 -231 375 C-230.278125 375.268125 -229.55625 375.53625 -228.8125 375.8125 C-223.46573236 378.07002411 -220.081514 380.918486 -216 385 C-214.55187205 386.1175176 -213.0925166 387.22056815 -211.625 388.3125 C-207.11734866 391.75688475 -203.5659728 395.60973197 -200 400 C-196.34714238 404.44604956 -192.54137829 408.57469427 -188.375 412.55078125 C-182.77396863 417.98928269 -177.3067746 423.85414075 -174 431 C-173.34 431 -172.68 431 -172 431 C-171.34 431.66 -170.68 432.32 -170 433 C-158.15377269 395.92827688 -152.95048365 355.61646497 -149 317 C-148.91598938 316.18378174 -148.83197876 315.36756348 -148.74542236 314.52661133 C-146.03698907 288.07109992 -144.16975632 261.63792635 -143.08532715 235.06793213 C-142.96161593 232.06974914 -142.82803322 229.0720146 -142.6953125 226.07421875 C-142.03431409 210.76169082 -141.58827197 195.44110508 -141.125 180.12158203 C-141.00172858 176.04844863 -140.87629153 171.97538453 -140.75 167.90234375 C-140.72946564 167.23829529 -140.70893127 166.57424683 -140.68777466 165.89007568 C-140.58427209 162.55213065 -140.47900639 159.21425457 -140.37060547 155.87646484 C-140.1590848 149.31771555 -139.96711025 142.75975845 -139.8203125 136.19921875 C-138.90431347 98.3571592 -134.81540283 56.06695081 -106 28 C-105.21625 27.01 -104.4325 26.02 -103.625 25 C-101.12234922 22.13982768 -98.80639294 20.3169117 -95.6953125 18.22265625 C-93.74450748 16.88441749 -93.74450748 16.88441749 -91.375 14.375 C-82.33692684 5.33692684 -65.50002413 -2.52511398 -53 -4 C-34.84135767 -8.84230462 -17.37110189 -8.11870446 0 0 Z M-92.29296875 47.73046875 C-94.3057451 50.42844557 -96.17614712 53.1712477 -98 56 C-98.60457031 56.91136719 -99.20914062 57.82273438 -99.83203125 58.76171875 C-111.01698323 76.62352659 -114.68453445 97.4456147 -115.5 118.19921875 C-115.5602964 119.6554792 -115.5602964 119.6554792 -115.62181091 121.14115906 C-115.7517666 124.32312954 -115.87621192 127.505284 -116 130.6875 C-116.04424103 131.7946637 -116.08848206 132.90182739 -116.13406372 134.0425415 C-116.71211346 148.57164682 -117.1408201 163.09485689 -117.39007568 177.63308716 C-117.8885813 206.45498823 -119.34350436 235.22356481 -121 264 C-121.05929687 265.03201538 -121.11859375 266.06403076 -121.1796875 267.12731934 C-124.40383229 322.60871425 -131.10896285 378.6510016 -145.33935547 432.47949219 C-146.07791577 435.29726622 -146.79166678 438.12077424 -147.50390625 440.9453125 C-148.02302022 442.98448127 -148.54254448 445.02354565 -149.0625 447.0625 C-149.29582031 447.99054443 -149.52914062 448.91858887 -149.76953125 449.87475586 C-154.28500002 467.36122224 -154.28500002 467.36122224 -158.8125 471.6875 C-162.63844873 473.26289065 -164.90166936 473.65866028 -169 473 C-173.62154861 469.64225289 -176.70314938 466.01763781 -179.875 461.3125 C-180.74391968 460.06098775 -181.61503198 458.81099511 -182.48828125 457.5625 C-182.91318848 456.9540625 -183.3380957 456.345625 -183.77587891 455.71875 C-186.66319439 451.66476096 -189.84626303 447.8469346 -193 444 C-193.66128906 443.1646875 -194.32257813 442.329375 -195.00390625 441.46875 C-203.57676518 430.73294139 -213.11444069 420.84295494 -222.75 411.0625 C-223.25120361 410.54824463 -223.75240723 410.03398926 -224.26879883 409.50415039 C-225.47381573 408.29619801 -226.73240529 407.14211134 -228 406 C-228.66 406 -229.32 406 -230 406 C-230.33 405.01 -230.66 404.02 -231 403 C-232.47106268 401.58564748 -232.47106268 401.58564748 -234.30859375 400.30078125 C-235.30536133 399.57084961 -235.30536133 399.57084961 -236.32226562 398.82617188 C-237.36930664 398.0769043 -237.36930664 398.0769043 -238.4375 397.3125 C-239.13166016 396.80138672 -239.82582031 396.29027344 -240.54101562 395.76367188 C-243.94279082 392.9815083 -243.94279082 392.9815083 -248 392 C-248 391.34 -248 390.68 -248 390 C-251.57520805 388.06789723 -255.16153115 386.15734438 -258.75 384.25 C-259.74644531 383.71117187 -260.74289062 383.17234375 -261.76953125 382.6171875 C-280.45163257 372.73375326 -300.64824469 368.76381166 -321.20703125 374.79296875 C-322.45871094 375.19128906 -323.71039063 375.58960938 -325 376 C-325.96365479 376.30478271 -325.96365479 376.30478271 -326.94677734 376.61572266 C-333.492695 378.71641357 -338.66783816 380.62661805 -344 385 C-346 386 -348 387 -350 388 C-352.13787054 389.50302066 -354.19905718 391.01387843 -356.25 392.625 C-356.81501221 393.06521484 -357.38002441 393.50542969 -357.9621582 393.95898438 C-363.19147531 398.07569653 -368.16225271 402.42883846 -373 407 C-373.86753906 407.80308594 -374.73507812 408.60617187 -375.62890625 409.43359375 C-382.45858821 415.9579248 -389.10501807 422.56647223 -389.75 432.4375 C-388.80511917 446.4926024 -375.76829009 458.78112719 -365.9375 467.875 C-358.33174602 474.43587404 -350.11906913 480.03901334 -341.609375 485.3515625 C-339.23945045 486.8487304 -336.93210796 488.40860072 -334.625 490 C-325.38639343 496.68452237 -325.38639343 496.68452237 -315 500 C-315 500.66 -315 501.32 -315 502 C-311.54466686 503.67294007 -308.08526007 505.33727763 -304.625 507 C-303.64015625 507.47695313 -302.6553125 507.95390625 -301.640625 508.4453125 C-300.69960938 508.89648438 -299.75859375 509.34765625 -298.7890625 509.8125 C-297.91975098 510.23144531 -297.05043945 510.65039062 -296.15478516 511.08203125 C-294.08369694 512.13064356 -294.08369694 512.13064356 -292 512 C-292 512.66 -292 513.32 -292 514 C-291.33991943 514.30180176 -290.67983887 514.60360352 -289.99975586 514.91455078 C-286.97346037 516.30632304 -283.95556499 517.71547419 -280.9375 519.125 C-279.89916016 519.599375 -278.86082031 520.07375 -277.79101562 520.5625 C-252.01614541 532.67259775 -239.9741752 563.1805892 -227 587 C-226.00012484 588.83340142 -225.00012605 590.66673543 -224 592.5 C-222 596.16666667 -220 599.83333333 -218 603.5 C-217.26076294 604.85508667 -217.26076294 604.85508667 -216.5065918 606.23754883 C-215.48421041 608.11216321 -214.46225184 609.98700824 -213.44067383 611.86206055 C-190.64287108 653.74621293 -190.64287108 653.74621293 -160 690 C-159.34 690 -158.68 690 -158 690 C-157.731875 690.639375 -157.46375 691.27875 -157.1875 691.9375 C-156.11332248 694.33131686 -156.11332248 694.33131686 -153 695 C-153 695.66 -153 696.32 -153 697 C-151.51363242 698.3606009 -151.51363242 698.3606009 -149.625 699.625 C-148.68527344 700.29402344 -148.68527344 700.29402344 -147.7265625 700.9765625 C-146.04777357 702.16996969 -146.04777357 702.16996969 -144 702 C-144 702.66 -144 703.32 -144 704 C-142.28198718 705.36637653 -142.28198718 705.36637653 -140.125 706.625 C-139.40570313 707.07101562 -138.68640625 707.51703125 -137.9453125 707.9765625 C-136.07135238 709.15519998 -136.07135238 709.15519998 -134 709 C-134 709.66 -134 710.32 -134 711 C-121.43672305 717.78722176 -121.43672305 717.78722176 -108.53125 723.88671875 C-106.78941299 724.65280447 -105.06060044 725.44897773 -103.34375 726.26953125 C-97.38921386 729.10135806 -91.45112129 731.18115792 -85.125 733.03125 C-82.30853685 733.90435358 -79.65068403 734.91461445 -76.9375 736.0625 C-72.34339421 737.97358805 -67.70319296 739.17629351 -62.859375 740.2890625 C-60 741 -60 741 -57.20556641 741.94311523 C-41.9880748 746.96036742 -25.82369859 750.51441903 -10 753 C-8.8346875 753.20367188 -7.669375 753.40734375 -6.46875 753.6171875 C12.53765431 756.53203522 36.93015014 758.68523582 54.265625 748.90625 C57.0180673 747.46803691 60.02114554 746.84307202 63 746 C64.68756133 745.03567924 66.35666496 744.03789581 68 743 C69.03447266 742.59974609 69.03447266 742.59974609 70.08984375 742.19140625 C82.77662764 736.99748801 94.67518435 729.66330675 106 722 C107.5778125 720.95779297 107.5778125 720.95779297 109.1875 719.89453125 C142.93726146 697.18789027 171.76682983 666.19944372 191.92138672 630.86572266 C193.03579086 628.93809105 194.18637298 627.03643961 195.34765625 625.13671875 C216.70147357 590.01491572 230.55927912 551.29619944 238.80078125 511.09375 C248.16479454 466.71454008 271.68839691 424.09880595 293.46728516 384.78320312 C295.68856921 380.74965132 297.87111254 376.69548963 300.0559082 372.64208984 C304.85355115 363.74373782 309.68609912 354.87836697 314.76220703 346.13525391 C316.32425189 343.44064949 317.87882297 340.74177673 319.43359375 338.04296875 C323.28466201 331.3594351 327.14148822 324.67923857 331 318 C331.50466797 317.12617676 332.00933594 316.25235352 332.52929688 315.35205078 C333.87302135 313.02597513 335.21746911 310.70032045 336.5625 308.375 C336.99498047 307.62726318 337.42746094 306.87952637 337.87304688 306.10913086 C340.33550528 301.85723177 342.81077689 297.61312342 345.296875 293.375 C356.14844667 274.8668979 366.80436079 256.26372202 376.75 237.25 C377.50240967 235.8122522 377.50240967 235.8122522 378.27001953 234.34545898 C383.34307749 224.55716064 386.14897861 216.23958539 382.8125 205.1875 C382.25114491 203.77390582 381.64813873 202.37596666 381 201 C380.70609375 200.37351563 380.4121875 199.74703125 380.109375 199.1015625 C376.98391994 193.76029975 371.93901713 190.42673403 366.12060547 188.49804688 C352.97221668 185.41000714 338.10215376 187.15269291 326 193 C325.34 193.66 324.68 194.32 324 195 C322.33333333 195.66666667 320.66666667 196.33333333 319 197 C308.70945253 203.2112603 301.39138598 211.31477167 294.14135742 220.71826172 C290.68134544 225.19310677 287.01716196 229.40483221 283.18359375 233.56640625 C280.83699028 236.18167273 278.63647175 238.8847429 276.4375 241.625 C273.12697378 245.71853764 269.6538534 249.45747787 265.8828125 253.125 C263.4666658 255.53112119 261.2656466 258.08807557 259.04296875 260.671875 C256.43540521 263.64340057 253.75128298 266.53954779 251.0625 269.4375 C246.91767427 273.90516553 242.82480996 278.40871879 238.81640625 283 C236.62101721 285.41728858 234.31893598 287.70028172 232 290 C230.61771353 291.39245921 229.23628509 292.78577044 227.85546875 294.1796875 C226.29954101 295.74485315 224.7435498 297.3099557 223.1875 298.875 C222.41857422 299.65230469 221.64964844 300.42960937 220.85742188 301.23046875 C215.08578352 307.02646001 209.0805426 312.42799225 202.8046875 317.66796875 C201.83789062 318.49941406 200.87109375 319.33085937 199.875 320.1875 C198.41707031 321.41533203 198.41707031 321.41533203 196.9296875 322.66796875 C189.3289478 330.39911643 186.79653358 341.29070004 184.6875 351.5625 C184.40385648 352.88228955 184.11881558 354.2017794 183.83251953 355.52099609 C183.04074576 359.19418005 182.27148789 362.87173306 181.50836182 366.55096436 C180.97225593 369.13365721 180.43257388 371.71558323 179.89208984 374.29736328 C179.70199844 375.20568405 179.51190704 376.11400482 179.3160553 377.04985046 C178.92371216 378.92438108 178.53132689 380.79890289 178.13890076 382.67341614 C177.17975668 387.25936773 176.22554876 391.84620571 175.28393555 396.43579102 C173.2262063 406.42094597 171.02467659 416.35135923 168.55526733 426.243927 C168.35220978 427.07076996 168.14915222 427.89761292 167.93994141 428.74951172 C167.66750107 429.83847244 167.66750107 429.83847244 167.38955688 430.94943237 C166.87557528 433.30707883 166.87557528 433.30707883 167 437 C166.34 437 165.68 437 165 437 C159.84662278 385.6923733 163.64951821 335.62129682 178 286 C178.53894843 284.1018246 179.0778853 282.20364587 179.61633301 280.30532837 C195.28743908 225.19583795 214.70255759 171.28910887 236.51269531 118.32666016 C237.46961972 116.00137854 238.42313515 113.67469034 239.37280273 111.34643555 C240.20430536 109.30898389 241.04393651 107.27481422 241.89477539 105.24536133 C247.68748231 91.04784818 251.09128518 75.60058422 245.44140625 60.81640625 C240.10832988 50.39595079 230.65974459 43.52618196 219.68359375 39.90625 C210.77210135 37.71639521 202.09031916 37.6646642 193 38 C191.88238281 37.99613281 190.76476562 37.99226563 189.61328125 37.98828125 C181.9420352 38.16077081 175.17694385 39.93743587 167.9375 42.3125 C167.03233643 42.60842041 166.12717285 42.90434082 165.19458008 43.20922852 C160.39533195 44.87495312 156.8421108 46.5784542 153 50 C151.80375 50.556875 150.6075 51.11375 149.375 51.6875 C143.53988049 54.4892398 138.83627294 58.76007951 134 63 C133.35933594 63.55558594 132.71867188 64.11117187 132.05859375 64.68359375 C118.78192404 77.03613332 111.72962054 94.70675216 104.83007812 111.06274414 C101.36152132 119.25311117 97.69450342 127.3475536 94 135.4375 C92.69348483 138.30314596 91.38773132 141.16913882 90.08203125 144.03515625 C89.74871796 144.76674454 89.41540466 145.49833282 89.07199097 146.25209045 C75.84822347 175.2845248 63.0643044 204.46427881 51 234 C50.47611694 235.28043182 50.47611694 235.28043182 49.94165039 236.58673096 C47.92852703 241.5143218 45.93649816 246.44962587 43.97348022 251.3973999 C43.37980098 252.88984164 42.78172458 254.38054404 42.17861938 255.86920166 C32.90051474 278.83397918 31.74505224 303.12302429 31.5859375 327.64453125 C31.56715314 329.52024619 31.54757485 331.39595332 31.5272522 333.27165222 C31.47669038 338.12929607 31.43666681 342.98696711 31.39910889 347.84472656 C31.35858312 352.83339736 31.30771675 357.82196265 31.2578125 362.81054688 C31.16195705 372.54028966 31.0772738 382.27009309 31 392 C30.82937042 391.37217621 30.65874084 390.74435242 30.48294067 390.09750366 C29.70013628 387.21849249 28.91648062 384.33971368 28.1328125 381.4609375 C27.73026245 379.97968384 27.73026245 379.97968384 27.31958008 378.46850586 C25.87788305 373.17494653 24.4021453 367.89447708 22.875 362.625 C20.38822963 353.22480161 18.91298842 343.64656592 17.46582031 334.03955078 C17.04447459 331.29020367 16.58444032 328.550408 16.1171875 325.80859375 C13.86563419 311.59950284 13.7071392 297.42941885 13.52456665 283.08139038 C13.21736268 260.13181082 11.93641287 237.25805662 10.59283543 214.35084057 C10.37317354 210.605058 10.155155 206.85918089 9.9375 203.11328125 C9.8951013 202.38815905 9.8527026 201.66303684 9.80901909 200.91594124 C9.14013579 189.41167372 8.65504595 177.91219435 8.34155273 166.39216614 C8.20318076 161.5893803 8.0257061 156.84140156 7.48095703 152.06616211 C6.79024909 145.72677971 6.85690724 139.39387732 6.8671875 133.0234375 C6.86651135 131.68600446 6.86553876 130.34857154 6.86428833 129.01113892 C6.86282291 126.21916525 6.86492639 123.42722379 6.86962891 120.63525391 C6.87529287 117.10538945 6.87197288 113.57560094 6.86618137 110.04573917 C6.84713172 96.3259255 6.93876374 82.68390816 8 69 C8.7073853 55.17297535 9.16152299 40.90712766 -0.32421875 29.703125 C-8.91959135 20.96750156 -19.50463107 16.54438158 -31.75 16.375 C-55.41935162 16.67445278 -77.33788634 29.92194643 -92.29296875 47.73046875 Z " fill="#020202" transform="translate(449,34)"/>
<path d="M0 0 C4.72122886 3.75552295 8.77537087 7.85240297 12.8125 12.3125 C32.60268376 34.06073403 58.20801374 46.7246081 85 58 C86.155 58.515625 87.31 59.03125 88.5 59.5625 C91.92396345 61.04625419 91.92396345 61.04625419 95.3125 61.9375 C98.26852428 62.78923581 100.9232593 63.75857497 103.75 64.9375 C108.23720046 66.77875247 112.73952838 68.07406306 117.4296875 69.2890625 C119.61560041 69.89367671 121.64995862 70.59202879 123.75 71.4375 C132.92130897 75.00829653 142.68597189 77.17258438 152.4140625 78.5078125 C155 79 155 79 157.2277832 79.96386719 C163.02430561 82.13035253 169.43741687 82.40811495 175.5625 83.125 C176.31521179 83.21437836 177.06792358 83.30375671 177.84344482 83.39584351 C197.87997828 85.73226375 217.90056683 85.7477768 238 84 C238.22590957 92.52130901 236.8297661 99.37542464 230.8125 105.8125 C212.51879911 122.42895326 185.65032473 124.32791496 162.26287842 123.41267395 C145.01092679 122.52822964 127.72577898 118.4041834 111.41796875 112.8046875 C108.60838133 111.86967133 105.77550689 111.03226958 102.9375 110.1875 C97.68313596 108.58079364 92.52253225 106.79110691 87.375 104.875 C86.68784912 104.62129639 86.00069824 104.36759277 85.29272461 104.10620117 C82.25618252 102.95939981 79.71461511 101.80974341 77 100 C75.73180934 99.562005 74.44965483 99.16356363 73.16015625 98.79296875 C66.58938703 96.67727426 60.57010449 93.44498143 54.4375 90.3125 C53.22619626 89.69930687 52.01460951 89.08667247 50.80273438 88.47460938 C47.86566893 86.98852447 44.93157184 85.49688463 42 84 C42 83.34 42 82.68 42 82 C40.72576172 81.64615234 40.72576172 81.64615234 39.42578125 81.28515625 C35.57804044 79.84170502 32.47787869 77.84234021 29.1875 75.4375 C28.57366455 74.99132324 27.9598291 74.54514648 27.32739258 74.08544922 C12.25771992 62.90938567 -1.94317682 45.95618343 -5.55078125 27.125 C-6.97392817 17.22484753 -6.54899861 9.51452901 -1 1 C-0.67 0.67 -0.34 0.34 0 0 Z " fill="#FBFBFB" transform="translate(259,725)"/>
<path d="M0 0 C4.05150415 0.69202711 5.74889188 2.45012875 8.515625 5.4296875 C11.01353849 10.42551448 9.27875771 16.0292245 7.64453125 21.05859375 C7.44699753 21.67757034 7.24946381 22.29654694 7.04594421 22.9342804 C6.39886531 24.95655308 5.73837344 26.97418062 5.078125 28.9921875 C4.15335032 31.86975342 3.23537259 34.74948106 2.31640625 37.62890625 C1.96465836 38.72570709 1.96465836 38.72570709 1.60580444 39.84466553 C-1.15004942 48.45785086 -3.71146433 57.12751384 -6.26342773 65.80297852 C-10.98787654 81.73056978 -16.43939427 97.34841543 -22.359375 112.8671875 C-22.66496338 113.66930664 -22.97055176 114.47142578 -23.28540039 115.29785156 C-25.07906356 120.00042345 -26.88370826 124.69864588 -28.69812012 129.39324951 C-29.40476012 131.22348114 -30.10741881 133.05524874 -30.80957031 134.88720703 C-31.847384 137.57680814 -32.90805876 140.25531251 -33.984375 142.9296875 C-34.2613623 143.6508374 -34.53834961 144.3719873 -34.82373047 145.11499023 C-36.86652702 150.04371006 -39.1474364 152.50156335 -43.484375 155.4296875 C-46.60980359 156.30213883 -49.32875454 156.16774238 -52.484375 155.4296875 C-55.76612818 152.90000276 -57.17681277 151.35237419 -58.484375 147.4296875 C-59.29276195 139.79781934 -56.69044145 134.22559855 -53.671875 127.3046875 C-52.6507884 124.87662312 -51.63326372 122.44738824 -50.62109375 120.015625 C-50.35976654 119.3905304 -50.09843933 118.76543579 -49.82919312 118.12139893 C-39.16110033 92.49842362 -31.10842515 65.97117875 -23.05882263 39.4427948 C-21.96860276 35.8524616 -20.87421784 32.26340195 -19.77999878 28.67428589 C-18.99925349 26.10367507 -18.22695223 23.53063461 -17.45532227 20.95727539 C-16.97573087 19.37767347 -16.4958467 17.79816041 -16.015625 16.21875 C-15.69754128 15.1445858 -15.69754128 15.1445858 -15.37303162 14.04872131 C-12.58392608 4.94710858 -9.83487355 -0.25881246 0 0 Z " fill="#030303" transform="translate(458.484375,587.5703125)"/>
<path d="M0 0 C4.96210773 2.7093717 4.96210773 2.7093717 6.16015625 5.10546875 C6.89215024 11.51855919 5.77079779 16.19158315 2.79296875 21.82421875 C2.44266098 22.52052902 2.09235321 23.21683929 1.73143005 23.93424988 C0.60096518 26.16789205 -0.55553395 28.38668069 -1.71484375 30.60546875 C-2.503564 32.14383705 -3.29140287 33.68265753 -4.07836914 35.22192383 C-9.30617936 45.39314392 -14.65317557 55.47881118 -20.83984375 65.10546875 C-21.24219238 65.73324219 -21.64454102 66.36101562 -22.05908203 67.0078125 C-27.64446006 75.6589473 -33.55120934 84.08911163 -39.61083984 92.41357422 C-40.44047793 93.55568624 -41.26623998 94.7006225 -42.08837891 95.84814453 C-43.28892745 97.52342751 -44.50026858 99.19033763 -45.71484375 100.85546875 C-46.41351563 101.8196875 -47.1121875 102.78390625 -47.83203125 103.77734375 C-50.37293773 106.72360885 -52.21838301 107.82990744 -56.0234375 108.4765625 C-60.45349524 108.60708413 -62.23895825 108.58116977 -65.83984375 105.73046875 C-68.54306003 102.18249738 -69.305839 99.89461875 -69.25097656 95.36694336 C-68.75678595 92.6486015 -67.78225918 91.11641624 -66.19921875 88.859375 C-65.65322021 88.0744165 -65.10722168 87.28945801 -64.54467773 86.48071289 C-63.98208252 85.69688232 -63.4194873 84.91305176 -62.83984375 84.10546875 C-62.33332275 83.39962646 -61.82680176 82.69378418 -61.30493164 81.96655273 C-59.76278043 79.83969727 -58.2075399 77.72279831 -56.65234375 75.60546875 C-44.07427555 58.27400859 -33.25804123 40.2218372 -23.8125 20.98828125 C-23.32330078 19.99272217 -22.83410156 18.99716309 -22.33007812 17.97143555 C-21.40268715 16.0692374 -20.48540906 14.16206336 -19.58007812 12.24926758 C-16.78805124 6.48614121 -14.18987271 2.40861366 -8.83984375 -1.26953125 C-5.48148404 -2.31901866 -3.10809045 -1.51115226 0 0 Z " fill="#030303" transform="translate(520.83984375,643.89453125)"/>
<path d="M0 0 C2.66443235 2.11943482 4.55977444 3.63654923 4.98980713 7.1427002 C4.90237328 12.49903252 4.39229089 17.62928201 3.484375 22.90625 C3.28288849 24.12532043 3.28288849 24.12532043 3.07733154 25.36901855 C2.64322097 27.97666089 2.19756351 30.58213567 1.75 33.1875 C1.53138306 34.47841553 1.53138306 34.47841553 1.30834961 35.79541016 C-10.73355657 106.85260858 -10.73355657 106.85260858 -19.25 113.1875 C-23.39589985 114.41418947 -27.09081142 114.64109553 -31.125 113.0625 C-34.76293848 109.85255428 -36.1519022 107.60200703 -36.4921875 102.6953125 C-36.4052072 97.33842084 -34.95932154 92.39163557 -33.5625 87.25 C-29.36692512 71.05120738 -26.09669078 54.78794981 -23.5234375 38.2578125 C-23.37206833 37.2940419 -23.22069916 36.3302713 -23.06474304 35.33729553 C-22.30157531 30.47265953 -21.55475448 25.60653427 -20.83618164 20.73510742 C-20.55671036 18.92357919 -20.27670413 17.11213338 -19.99609375 15.30078125 C-19.87950409 14.47051422 -19.76291443 13.64024719 -19.64279175 12.78482056 C-18.83840353 7.71664517 -17.56134328 4.27345896 -14.25 0.1875 C-9.30656248 -2.67449014 -4.97293764 -2.77336907 0 0 Z " fill="#040404" transform="translate(374.25,615.8125)"/>
</svg>
