<?xml version="1.0" encoding="UTF-8"?>
<svg version="1.1" xmlns="http://www.w3.org/2000/svg" width="900" height="900">
<path d="M0 0 C15.13409476 13.37480924 23.97395805 29.27195902 28.9375 48.625 C28.9375 49.285 28.9375 49.945 28.9375 50.625 C30.236875 50.686875 31.53625 50.74875 32.875 50.8125 C53.96065751 52.9689877 73.15463008 63.81807979 86.82421875 79.88671875 C103.29537411 101.22919548 111.67665594 126.24766773 115.9375 152.625 C116.16397217 153.95748779 116.16397217 153.95748779 116.39501953 155.31689453 C131.43680265 247.7256916 107.8614543 353.76025642 52.45166016 435.046875 C50.32427473 437.94221292 48.1426821 440.78825375 45.9375 443.625 C45.26589844 444.49640625 44.59429688 445.3678125 43.90234375 446.265625 C41.95024564 448.75084231 39.95439599 451.19209599 37.9375 453.625 C37.10347656 454.64464844 36.26945312 455.66429687 35.41015625 456.71484375 C23.93110529 470.55426195 11.26329877 483.7202875 -3.0625 494.625 C-4.34601381 495.63549838 -5.62848206 496.64732559 -6.91015625 497.66015625 C-16.5976828 505.25781973 -26.60577578 512.13348318 -37.0625 518.625 C-38.1246875 519.29015625 -39.186875 519.9553125 -40.28125 520.640625 C-46.76051402 524.625 -46.76051402 524.625 -49.0625 524.625 C-48.73894531 525.77226563 -48.41539062 526.91953125 -48.08203125 528.1015625 C-47.00087961 532.44719942 -46.71476492 536.53484689 -46.75 541 C-46.75491455 541.74314453 -46.7598291 542.48628906 -46.76489258 543.25195312 C-47.04348758 556.36163371 -52.53632645 566.69094061 -61.4375 576.1484375 C-82.97930096 596.4721009 -114.19568963 604.32093002 -143.0625 604 C-144.19585785 603.99302094 -144.19585785 603.99302094 -145.35211182 603.98590088 C-198.23381507 603.6074119 -267.98741932 589.59344903 -309.0625 553.625 C-309.76761719 553.03976562 -310.47273438 552.45453125 -311.19921875 551.8515625 C-327.88712596 537.80193396 -340.8566873 517.49624835 -343.29003906 495.57519531 C-344.33980814 481.80935555 -340.77500739 469.56445986 -334.0625 457.625 C-334.76632812 456.84640625 -335.47015625 456.0678125 -336.1953125 455.265625 C-379.78133257 406.2163847 -406.48886012 340.24721103 -415.0625 275.625 C-415.21936279 274.47765381 -415.21936279 274.47765381 -415.37939453 273.30712891 C-417.84523996 252.60549633 -417.91985048 228.93755657 -413.0625 208.625 C-412.85850586 207.77099609 -412.65451172 206.91699219 -412.44433594 206.03710938 C-406.86931457 183.52603329 -397.58430327 162.07683485 -382.0625 144.625 C-381.37800781 143.79742187 -380.69351563 142.96984375 -379.98828125 142.1171875 C-360.66274735 119.32663181 -331.18666516 105.79290749 -303.0625 97.625 C-302.4025 97.625 -301.7425 97.625 -301.0625 97.625 C-301.38476562 96.40554687 -301.70703125 95.18609375 -302.0390625 93.9296875 C-307.64897128 68.5014107 -301.50301544 40.73061428 -287.7109375 18.984375 C-273.8391885 -0.86997665 -254.86486452 -14.21724019 -231.0625 -19.375 C-208.27963569 -23.26673483 -184.52392011 -18.51204951 -165.43554688 -5.24414062 C-159.32194753 -0.82915326 -153.47855479 3.81025751 -148.33203125 9.34765625 C-147.06825191 10.75509752 -147.06825191 10.75509752 -145.0625 11.625 C-144.794375 11.04234375 -144.52625 10.4596875 -144.25 9.859375 C-136.6482525 -4.44391307 -119.60370239 -13.81584234 -104.66113281 -18.60791016 C-69.79272889 -28.96759185 -28.48441649 -23.82247554 0 0 Z " fill="#FEFEFE" transform="translate(598.0625,159.375)"/>
<path d="M0 0 C15.13409476 13.37480924 23.97395805 29.27195902 28.9375 48.625 C28.9375 49.285 28.9375 49.945 28.9375 50.625 C30.236875 50.686875 31.53625 50.74875 32.875 50.8125 C53.96065751 52.9689877 73.15463008 63.81807979 86.82421875 79.88671875 C103.29537411 101.22919548 111.67665594 126.24766773 115.9375 152.625 C116.16397217 153.95748779 116.16397217 153.95748779 116.39501953 155.31689453 C131.43680265 247.7256916 107.8614543 353.76025642 52.45166016 435.046875 C50.32427473 437.94221292 48.1426821 440.78825375 45.9375 443.625 C45.26589844 444.49640625 44.59429688 445.3678125 43.90234375 446.265625 C41.95024564 448.75084231 39.95439599 451.19209599 37.9375 453.625 C37.10347656 454.64464844 36.26945312 455.66429687 35.41015625 456.71484375 C23.93110529 470.55426195 11.26329877 483.7202875 -3.0625 494.625 C-4.34601381 495.63549838 -5.62848206 496.64732559 -6.91015625 497.66015625 C-16.5976828 505.25781973 -26.60577578 512.13348318 -37.0625 518.625 C-38.1246875 519.29015625 -39.186875 519.9553125 -40.28125 520.640625 C-46.76051402 524.625 -46.76051402 524.625 -49.0625 524.625 C-48.73894531 525.77226563 -48.41539062 526.91953125 -48.08203125 528.1015625 C-47.00087961 532.44719942 -46.71476492 536.53484689 -46.75 541 C-46.75491455 541.74314453 -46.7598291 542.48628906 -46.76489258 543.25195312 C-47.04348758 556.36163371 -52.53632645 566.69094061 -61.4375 576.1484375 C-82.97930096 596.4721009 -114.19568963 604.32093002 -143.0625 604 C-144.19585785 603.99302094 -144.19585785 603.99302094 -145.35211182 603.98590088 C-198.23381507 603.6074119 -267.98741932 589.59344903 -309.0625 553.625 C-309.76761719 553.03976562 -310.47273438 552.45453125 -311.19921875 551.8515625 C-327.88712596 537.80193396 -340.8566873 517.49624835 -343.29003906 495.57519531 C-344.33980814 481.80935555 -340.77500739 469.56445986 -334.0625 457.625 C-334.76632812 456.84640625 -335.47015625 456.0678125 -336.1953125 455.265625 C-379.78133257 406.2163847 -406.48886012 340.24721103 -415.0625 275.625 C-415.21936279 274.47765381 -415.21936279 274.47765381 -415.37939453 273.30712891 C-417.84523996 252.60549633 -417.91985048 228.93755657 -413.0625 208.625 C-412.85850586 207.77099609 -412.65451172 206.91699219 -412.44433594 206.03710938 C-406.86931457 183.52603329 -397.58430327 162.07683485 -382.0625 144.625 C-381.37800781 143.79742187 -380.69351563 142.96984375 -379.98828125 142.1171875 C-360.66274735 119.32663181 -331.18666516 105.79290749 -303.0625 97.625 C-302.4025 97.625 -301.7425 97.625 -301.0625 97.625 C-301.38476562 96.40554687 -301.70703125 95.18609375 -302.0390625 93.9296875 C-307.64897128 68.5014107 -301.50301544 40.73061428 -287.7109375 18.984375 C-273.8391885 -0.86997665 -254.86486452 -14.21724019 -231.0625 -19.375 C-208.27963569 -23.26673483 -184.52392011 -18.51204951 -165.43554688 -5.24414062 C-159.32194753 -0.82915326 -153.47855479 3.81025751 -148.33203125 9.34765625 C-147.06825191 10.75509752 -147.06825191 10.75509752 -145.0625 11.625 C-144.794375 11.04234375 -144.52625 10.4596875 -144.25 9.859375 C-136.6482525 -4.44391307 -119.60370239 -13.81584234 -104.66113281 -18.60791016 C-69.79272889 -28.96759185 -28.48441649 -23.82247554 0 0 Z M-122.00390625 18.29296875 C-129.94088065 27.28419022 -131.75901372 36.95571637 -131.0625 48.625 C-130.92060415 50.18315163 -130.76891366 51.74043087 -130.609375 53.296875 C-129.20007897 67.15966738 -128.83844764 80.88657944 -128.8125 94.8125 C-128.80500732 96.20991425 -128.80500732 96.20991425 -128.79736328 97.63555908 C-128.75103117 108.16105644 -129.00676041 118.26203677 -131.0625 128.625 C-131.27132813 129.75655518 -131.48015625 130.88811035 -131.6953125 132.05395508 C-132.33987805 135.51921427 -133.00952331 138.97863635 -133.6875 142.4375 C-133.91695313 143.61892578 -134.14640625 144.80035156 -134.3828125 146.01757812 C-134.94046478 148.8871638 -135.50038492 151.75628583 -136.0625 154.625 C-137.9178412 143.821914 -139.40513969 133.02596888 -140.5625 122.125 C-141.64484227 111.98289516 -142.98979206 101.94010209 -144.6875 91.88427734 C-145.21355807 88.71491447 -145.69892985 85.53965358 -146.18701172 82.36425781 C-146.7929629 78.44803236 -147.42602332 74.53636134 -148.0625 70.625 C-148.17561523 69.91714355 -148.28873047 69.20928711 -148.40527344 68.47998047 C-151.79599721 47.57051724 -157.91054846 29.6056451 -175.375 16.375 C-190.70902075 5.7739661 -207.4606377 0.47233799 -226.1484375 3.05078125 C-243.16262782 6.76835903 -258.53259146 17.0189565 -268.0625 31.625 C-279.01725961 50.54275733 -282.98363395 70.28436433 -278.5625 91.875 C-271.03444834 130.45297837 -278.86533129 179.0085624 -300.81054688 211.81933594 C-306.45127786 219.9548364 -312.57622031 227.57294943 -319.796875 234.3671875 C-321.70958511 236.27330205 -323.45087261 238.21105539 -325.20703125 240.2578125 C-329.56580183 245.28716317 -334.27281619 249.9445488 -339 254.625 C-339.87462891 255.49511719 -340.74925781 256.36523438 -341.65039062 257.26171875 C-343.78547449 259.38513549 -345.92287205 261.50616378 -348.0625 263.625 C-344.15484354 256.75096907 -340.08159004 250.05027266 -335.75 243.4375 C-324.45112293 226.10077335 -314.07828817 208.54857567 -308.0625 188.625 C-307.74023438 187.67367187 -307.41796875 186.72234375 -307.0859375 185.7421875 C-305.96611929 182.3314435 -304.99747093 178.90346645 -304.0625 175.4375 C-303.7325 174.22707031 -303.4025 173.01664063 -303.0625 171.76953125 C-300.80911329 162.81137739 -299.65856156 153.82149007 -298.9375 144.625 C-298.85113281 143.62210938 -298.76476562 142.61921875 -298.67578125 141.5859375 C-298.13306854 134.91832425 -297.95881863 128.31327119 -298.0625 121.625 C-304.75161883 122.15111047 -310.41760243 124.53031628 -316.5625 127.125 C-317.62678223 127.57278809 -318.69106445 128.02057617 -319.78759766 128.48193359 C-352.02256942 142.34859241 -373.32435276 165.46419396 -386.3046875 197.7109375 C-392.81228646 216.52748333 -393.92235968 236.91034642 -393.0625 256.625 C-393.02914551 257.56569336 -392.99579102 258.50638672 -392.96142578 259.47558594 C-391.42877761 297.58787577 -379.29410413 335.36678365 -363.0625 369.625 C-362.71622559 370.35912109 -362.36995117 371.09324219 -362.01318359 371.84960938 C-359.80020006 376.49784587 -357.46791953 381.07377919 -355.0625 385.625 C-354.51456787 386.67300781 -354.51456787 386.67300781 -353.95556641 387.7421875 C-343.24438577 408.10475332 -330.04255892 427.29002972 -314.35546875 444.14453125 C-312.39981934 446.26009748 -310.53684119 448.41743291 -308.6875 450.625 C-267.37286318 497.78695201 -197.11478564 512.90572923 -137.32885742 517.47723389 C-130.66239474 517.9118861 -123.99129439 517.99796991 -117.3125 518 C-116.00023437 518.00169189 -114.68796875 518.00338379 -113.3359375 518.00512695 C-93.63697351 517.77726956 -77.36585056 513.87895559 -60.0625 504.625 C-59.40056641 504.27663086 -58.73863281 503.92826172 -58.05664062 503.56933594 C-43.36349131 495.80212818 -29.78922557 486.3067135 -17.0625 475.625 C-16.55187012 475.2031543 -16.04124023 474.78130859 -15.51513672 474.34667969 C-3.37891262 464.3080309 8.11443641 453.62879224 17.8828125 441.23046875 C19.21744324 439.53807577 20.58600018 437.87170417 21.9921875 436.23828125 C33.80405487 422.45776932 43.52224549 406.67317597 51.9375 390.625 C52.42694092 389.69373291 52.42694092 389.69373291 52.92626953 388.74365234 C55.35575802 384.08120471 57.67130217 379.36872963 59.9375 374.625 C60.3308252 373.80257813 60.72415039 372.98015625 61.12939453 372.1328125 C80.60502272 331.09624072 90.52524322 288.6185529 94.57739258 243.55126953 C94.78526323 241.28484522 95.00489728 239.01930107 95.2565918 236.75732422 C96.26062604 227.53448878 96.13630636 218.26587764 96.125 209 C96.12439575 208.08971039 96.1237915 207.17942078 96.12316895 206.24154663 C96.05186947 166.63947061 93.12273712 121.20573092 64.828125 90.42578125 C55.19141955 81.24701842 42.34930035 74.36708076 28.9375 74.625 C28.92291748 75.39126709 28.90833496 76.15753418 28.89331055 76.94702148 C28.1494297 112.46667463 26.43752013 147.99092522 13.9375 181.625 C13.91244385 181.00044922 13.8873877 180.37589844 13.86157227 179.73242188 C13.74449619 176.86312877 13.62228249 173.99407575 13.5 171.125 C13.46068359 170.14273438 13.42136719 169.16046875 13.38085938 168.1484375 C13.33896484 167.18164062 13.29707031 166.21484375 13.25390625 165.21875 C13.21724854 164.33896484 13.18059082 163.45917969 13.14282227 162.55273438 C12.99035046 160.37860608 12.74960106 158.21029967 12.46264648 156.04980469 C11.73900363 150.46529371 11.50537449 144.85517594 11.21875 139.234375 C11.15594849 138.05337219 11.09314697 136.87236938 11.02844238 135.65557861 C10.82876482 131.89552227 10.63282069 128.135285 10.4375 124.375 C10.24181801 120.62901867 10.04526286 116.8830903 9.84655762 113.13726807 C9.72337477 110.81326844 9.60192289 108.48917615 9.48254395 106.16497803 C9.20167922 100.84838216 8.86298087 95.54705034 8.40356445 90.24267578 C8.04464366 86.0953734 7.80739391 81.98496708 7.76171875 77.8203125 C7.3441912 54.73377935 3.96854042 36.30459523 -13.234375 19.50390625 C-41.94376163 -5.20736111 -93.82493766 -8.86804038 -122.00390625 18.29296875 Z " fill="#010101" transform="translate(598.0625,159.375)"/>
<path d="M0 0 C3.93926736 1.33604522 6.29537299 2.97351377 9.25 5.875 C27.81204597 22.93349291 50.35165586 33.84348717 74 42 C75.1439624 42.39550049 76.2879248 42.79100098 77.46655273 43.19848633 C128.9145887 60.68529045 190.8313195 72.60904621 244.28955078 59.28271484 C244.85399902 59.18941895 245.41844727 59.09612305 246 59 C247.67411854 60.67411854 247.29113801 62.63774625 247.375 64.9375 C247.28176078 72.12624406 245.04018903 77.52449522 240.30859375 82.93359375 C231.85013771 90.86229262 221.66298679 95.35422025 210.9375 99.3125 C210.02790527 99.65015381 209.11831055 99.98780762 208.18115234 100.33569336 C197.27340124 104.21115086 186.98269312 105.36643489 175.4375 105.3125 C174.17534668 105.30758545 172.91319336 105.3026709 171.61279297 105.29760742 C151.90546268 105.05739431 132.8154648 102.24937071 113.68017578 97.64404297 C111.11225843 97.02697556 108.53962799 96.43529622 105.96484375 95.84765625 C68.79969442 87.17714092 26.22956601 73.17503775 4.88867188 39.16650391 C1.81917429 34.01864091 -0.29707793 28.72708911 -2 23 C-2.33 22.01 -2.66 21.02 -3 20 C-3.56822814 12.62396166 -3.10550047 6.72858436 0 0 Z " fill="#FCFCFC" transform="translate(281,635)"/>
<path d="M0 0 C4.06219391 0.04520725 6.5258907 0.61209239 9.75 3.25 C14.12319868 9.80979802 11.29543156 18.61703465 9.87060547 25.89526367 C9.60156009 27.22190802 9.33218434 28.5484854 9.0625 29.875 C8.78741328 31.25942027 8.51284265 32.64394317 8.23876953 34.02856445 C6.427976 43.12408412 4.51046878 52.19611755 2.50073242 61.24975586 C1.37349769 66.33110812 0.31448489 71.41676163 -0.66259766 76.52905273 C-4.82583506 98.21349674 -10.65562872 119.42891633 -17.37353516 140.45043945 C-18.48753662 144.0087277 -19.51265941 147.5905372 -20.51806641 151.1809082 C-21.73074437 154.60900886 -23.25598318 156.23229301 -26.25 158.25 C-30.5296192 159.487199 -33.94952835 159.75888021 -38.125 158.125 C-41.56563168 155.08914851 -43.12222268 152.78526386 -43.5078125 148.15234375 C-43.19381308 143.39953437 -41.88141822 139.53025795 -40.3125 135.0625 C-36.86920072 124.78745754 -34.1507244 114.38973806 -31.5625 103.875 C-31.37672394 103.12062653 -31.19094788 102.36625305 -30.99954224 101.58901978 C-30.27303779 98.63315998 -29.54842532 95.67687178 -28.83049011 92.71891785 C-27.96480239 89.15306189 -27.08670174 85.59145658 -26.17480469 82.03710938 C-24.09133464 73.90392516 -22.31372735 65.77475763 -20.875 57.5 C-18.51124228 44.32418718 -15.78543264 31.23895525 -12.88696289 18.17089844 C-12.47964785 16.30308812 -12.08913012 14.43148456 -11.72045898 12.55566406 C-11.56005127 11.75612305 -11.39964355 10.95658203 -11.234375 10.1328125 C-11.10385742 9.44848145 -10.97333984 8.76415039 -10.83886719 8.05908203 C-9.83639432 4.97934572 -7.68965489 3.25176812 -5.25 1.25 C-3.68966377 -0.31033623 -2.16052864 0.04292441 0 0 Z " fill="#030303" transform="translate(466.25,477.75)"/>
<path d="M0 0 C3.64355647 1.61935843 6.12645605 3.45012726 8 7 C8.51684163 12.9636295 7.10715947 17.22737533 4.88671875 22.625 C4.56156784 23.44077515 4.23641693 24.25655029 3.90141296 25.0970459 C2.8436966 27.7370859 1.76710922 30.36884408 0.6875 33 C0.32174866 33.90049072 -0.04400269 34.80098145 -0.4208374 35.72875977 C-9.27677676 57.52963759 -19.17877628 78.15150855 -31.38916016 98.30712891 C-32.4778623 100.12713264 -33.5395343 101.9635377 -34.57568359 103.81396484 C-35.0805127 104.70422363 -35.5853418 105.59448242 -36.10546875 106.51171875 C-36.76325317 107.70027466 -36.76325317 107.70027466 -37.43432617 108.9128418 C-39.34499159 111.45989913 -41.14864712 112.6097382 -44 114 C-50.56693369 114.83389634 -50.56693369 114.83389634 -53.8125 112.9453125 C-57.41465992 110.01855757 -58.82601954 108.19837742 -59.48828125 103.63671875 C-59.39118971 97.19534722 -55.46211603 92.12953523 -52.1875 86.8125 C-51.14134089 85.0602282 -50.10306761 83.30343784 -49.06506348 81.54632568 C-48.02564131 79.78768162 -46.98091274 78.03226216 -45.93603516 76.27685547 C-36.73419832 60.70219544 -29.68862667 44.50713888 -23.04296875 27.7265625 C-22.6633197 26.7738295 -22.6633197 26.7738295 -22.27600098 25.80184937 C-20.96719354 22.5042264 -19.70083997 19.19749891 -18.49072266 15.86230469 C-18.23865555 15.18718842 -17.98658844 14.51207214 -17.72688293 13.8164978 C-17.03287226 11.95550828 -16.35627985 10.08804941 -15.6809082 8.22021484 C-12.06544562 1.29386025 -7.60110942 -0.96522024 0 0 Z " fill="#020202" transform="translate(535,527)"/>
<path d="M0 0 C2.90659809 1.53366405 5.03610987 3.36229033 7 6 C7.91257691 9.47761719 7.74527182 12.76136891 7.55078125 16.33203125 C7.52228592 17.33925735 7.49379059 18.34648346 7.46443176 19.38423157 C7.35628789 22.59355314 7.18799929 25.79442082 7 29 C6.94277771 30.02107849 6.88555542 31.04215698 6.82659912 32.09417725 C6.46160662 38.26179802 5.98804771 44.41624182 5.45581055 50.5715332 C5.18677769 53.69588838 4.93516495 56.82130551 4.68554688 59.94726562 C0.76128773 107.66658462 0.76128773 107.66658462 -5.5625 114.25 C-9.30277948 116.93532886 -11.3679185 117.44539245 -16 117 C-19.6578218 114.96006092 -21.66946174 113.49580738 -24 110 C-24.84615548 102.95603037 -23.95352929 95.996924 -22.6875 89.0625 C-19.67301646 72.31637443 -18.23402539 55.33388557 -17.47265625 38.34765625 C-17.43160263 37.44273437 -17.39054901 36.5378125 -17.34825134 35.60546875 C-17.14917396 31.11756067 -16.97138271 26.62997187 -16.82202148 22.14013672 C-16.75656449 20.48794712 -16.69090046 18.83576572 -16.625 17.18359375 C-16.60627335 16.42965836 -16.58754669 15.67572296 -16.56825256 14.89894104 C-16.31707364 9.04884212 -14.77766015 5.87924073 -10.8125 1.6875 C-7.13873896 -0.51675662 -4.11293088 -1.00396879 0 0 Z " fill="#030303" transform="translate(385,513)"/>
</svg>
