<?xml version="1.0" encoding="UTF-8"?>
<svg version="1.1" xmlns="http://www.w3.org/2000/svg" width="900" height="900">
<path d="M0 0 C0.66 0.33 1.32 0.66 2 1 C3.39644271 0.99412024 4.79280474 0.94508519 6.1875 0.875 C15.64899602 0.7649826 24.98119579 3.33719516 34 6 C34 6.66 34 7.32 34 8 C34.72316406 8.10828125 35.44632813 8.2165625 36.19140625 8.328125 C46.41343447 10.77345025 55.57450364 19.284575 61 28 C61 28.66 61 29.32 61 30 C61.66 30 62.32 30 63 30 C73.81898693 51.72349945 72.30357574 71.91226348 68 95 C67.34 95 66.68 95 66 95 C65.95101563 95.65226562 65.90203125 96.30453125 65.8515625 96.9765625 C65.77679687 97.85054688 65.70203125 98.72453125 65.625 99.625 C65.55539062 100.48351562 65.48578125 101.34203125 65.4140625 102.2265625 C64.9512631 105.3264453 63.99491962 108.02730891 63 111 C62.37952766 113.23963862 61.77921369 115.48492474 61.1953125 117.734375 C61.03128433 118.36565308 60.86725616 118.99693115 60.69825745 119.64733887 C60.17117921 121.68088276 59.64778337 123.71534807 59.125 125.75 C58.9460318 126.44363647 58.7670636 127.13727295 58.58267212 127.85192871 C56.31019616 136.66868188 54.13445594 145.49549306 52.22705078 154.39941406 C51.42497969 158.13639769 50.5405314 161.82235461 49.5 165.5 C46.2864605 176.88710734 44.01933144 188.56301615 41.80859375 200.1796875 C41.17263418 203.18436603 40.44544187 206.10832063 39.66015625 209.07421875 C37.50092552 217.62070269 36.04458457 226.30044789 34.52050781 234.9777832 C34.00642599 237.90096049 33.48419951 240.82259439 32.9609375 243.74414062 C31.11032529 254.15939141 29.4111441 264.57834168 28.00585938 275.06382751 C27.35018323 279.88751937 26.48104835 284.57173319 25.375 289.3125 C24.82331409 292.75163878 24.62533068 294.31047302 26.296875 297.38671875 C28.07926194 299.44712759 29.951761 301.20832538 32 303 C32.680625 303.886875 33.36125 304.77375 34.0625 305.6875 C35.97163244 307.96614194 38.04578204 309.6987384 40.359375 311.55078125 C42.94791944 313.83732884 45.10921152 316.46718723 47.34375 319.09375 C49.09008095 321.15649843 49.09008095 321.15649843 51.5625 323.5 C54.15019834 326.15404958 56.26430498 328.95001255 58.44140625 331.94140625 C60.44473145 334.58740219 62.64414983 337.02355661 64.8984375 339.45703125 C66 341 66 341 66 344 C66.66 344 67.32 344 68 344 C69.5078125 345.8984375 69.5078125 345.8984375 71.125 348.375 C71.66382813 349.18710937 72.20265625 349.99921875 72.7578125 350.8359375 C74 353 74 353 74 355 C74.66 355 75.32 355 76 355 C76 355.99 76 356.98 76 358 C76.66 358 77.32 358 78 358 C78.39832031 358.73605469 78.79664063 359.47210938 79.20703125 360.23046875 C79.73683594 361.20628906 80.26664063 362.18210937 80.8125 363.1875 C81.33457031 364.15042969 81.85664062 365.11335938 82.39453125 366.10546875 C83.38846244 367.89744688 84.40623516 369.67669654 85.4609375 371.43359375 C91.07653331 380.79767103 95.77594368 390.37152044 99.67578125 400.5625 C100.5441217 402.8165991 101.47639455 405.04731182 102.4765625 407.24609375 C104.5445068 412.01868276 105.74936377 417.04168502 107.0625 422.0625 C107.57264929 423.99130121 108.08432613 425.91969915 108.59765625 427.84765625 C108.83701904 428.74790527 109.07638184 429.6481543 109.32299805 430.57568359 C109.86641349 432.52163216 110.49419679 434.44392872 111.1484375 436.35546875 C112.01531896 439.04757309 112.35962331 441.43562553 112.5625 444.25 C112.7887928 447.75867965 112.7887928 447.75867965 114 451 C114.51157261 455.29729399 114.76120717 459.62092772 115.0625 463.9375 C115.15120361 465.1961084 115.23990723 466.4547168 115.33129883 467.75146484 C115.82723664 475.21192907 116.18675869 482.64738725 116.1875 490.125 C116.1882251 490.90480225 116.1889502 491.68460449 116.18969727 492.48803711 C116.13662435 497.7267513 116.13662435 497.7267513 115 500 C114.84065547 501.90352111 114.68677599 503.80762143 114.55688477 505.71337891 C113.71187285 517.49817589 111.71062822 529.02293524 109.5625 540.625 C109.33575592 541.86231873 109.33575592 541.86231873 109.10443115 543.12463379 C107.04536064 554.30942704 104.67146928 565.21505899 101 576 C100.58136724 577.43692866 100.16498902 578.87451479 99.75 580.3125 C96.59729566 590.85335995 92.99695653 601.26357239 88.2734375 611.20703125 C86.75986063 614.52668605 85.44434516 617.91273217 84.125 621.3125 C81.59104001 627.8060327 78.6186825 633.9824153 75.41796875 640.171875 C73.93051832 642.97092082 73.93051832 642.97092082 73 646 C72.34 646 71.68 646 71 646 C70.75378906 646.84046875 70.50757813 647.6809375 70.25390625 648.546875 C68.85145678 652.4090723 67.02371998 655.726938 64.9375 659.25 C64.21713084 660.48418999 63.49706494 661.71855704 62.77734375 662.953125 C62.19082031 663.95859375 61.60429688 664.9640625 61 666 C60.67 666.66 60.34 667.32 60 668 C59.34 668 58.68 668 58 668 C57.7525 668.70125 57.505 669.4025 57.25 670.125 C55.83835134 673.37179192 54.02013415 676.11683385 52 679 C51.55140625 679.67417969 51.1028125 680.34835937 50.640625 681.04296875 C45.37456137 688.82475089 39.39676032 696.01382112 33.42700195 703.2578125 C32.18738206 704.77123039 30.96692803 706.3003076 29.75 707.83203125 C27.66333888 710.41706902 25.37680686 712.67846772 23 715 C22.10667969 715.92619141 22.10667969 715.92619141 21.1953125 716.87109375 C20.57398438 717.51175781 19.95265625 718.15242187 19.3125 718.8125 C18.73113281 719.41707031 18.14976562 720.02164063 17.55078125 720.64453125 C16 722 16 722 14 722 C13.67 722.99 13.34 723.98 13 725 C12.34 725 11.68 725 11 725 C10.67 725.99 10.34 726.98 10 728 C7.98828125 729.83984375 7.98828125 729.83984375 5.3125 731.9375 C1.38157192 735.06286824 -2.45249992 738.24756482 -6.22216797 741.56518555 C-13.79130984 748.20611488 -21.46402062 754.43038205 -31 758 C-31 758.66 -31 759.32 -31 760 C-31.886875 760.4125 -32.77375 760.825 -33.6875 761.25 C-36.81312366 762.90127288 -39.31905614 764.71331259 -42 767 C-41.5359375 768.4540625 -41.5359375 768.4540625 -41.0625 769.9375 C-37.50460785 782.61884418 -39.02435644 793.36716409 -45 805 C-45.433125 806.03125 -45.86625 807.0625 -46.3125 808.125 C-53.29444034 820.02015761 -64.87179296 828.01696738 -77 834 C-78.06734375 834.52722656 -79.1346875 835.05445313 -80.234375 835.59765625 C-85.95768275 838.33167768 -91.57188219 840.68865012 -97.6953125 842.3515625 C-99.90183814 842.97238158 -101.98457221 843.74671431 -104.125 844.5625 C-110.84185217 846.83315268 -117.98562069 847.27437455 -125 848 C-125.98871094 848.12503906 -126.97742188 848.25007812 -127.99609375 848.37890625 C-136.89955591 849.37659917 -145.73855022 848.72464347 -154.65087891 848.1484375 C-156.67646046 848.02044399 -158.70340618 847.91438377 -160.73046875 847.8125 C-169.85426544 847.29908588 -178.7704004 845.87444465 -187.77148438 844.36865234 C-190.94767265 843.84323119 -194.12965605 843.35824001 -197.3125 842.875 C-201.21400615 842.2811793 -205.10832621 841.65531878 -209 841 C-209 840.34 -209 839.68 -209 839 C-209.72445312 838.95101562 -210.44890625 838.90203125 -211.1953125 838.8515625 C-212.16210938 838.77679687 -213.12890625 838.70203125 -214.125 838.625 C-215.55199219 838.52058594 -215.55199219 838.52058594 -217.0078125 838.4140625 C-220.21357445 837.97044531 -222.9438708 837.05686366 -226 836 C-229.32399131 835.16477533 -232.65119797 834.3599038 -235.99023438 833.58789062 C-240.56908763 832.48598059 -244.67955232 830.9123293 -249 829 C-250.80185608 828.40428432 -252.61368648 827.83715868 -254.4375 827.3125 C-255.73494141 826.93544922 -255.73494141 826.93544922 -257.05859375 826.55078125 C-257.69925781 826.36902344 -258.33992187 826.18726563 -259 826 C-259 825.34 -259 824.68 -259 824 C-259.68835938 824.06058594 -260.37671875 824.12117187 -261.0859375 824.18359375 C-264.79281658 823.95005043 -267.29580438 822.68883119 -270.625 821.0625 C-275.22829459 818.82413974 -275.22829459 818.82413974 -280 817 C-280 816.34 -280 815.68 -280 815 C-280.969375 814.87625 -281.93875 814.7525 -282.9375 814.625 C-283.948125 814.41875 -284.95875 814.2125 -286 814 C-286.33 813.34 -286.66 812.68 -287 812 C-289.02463255 811.34786708 -289.02463255 811.34786708 -291 811 C-291 810.34 -291 809.68 -291 809 C-291.70125 808.7525 -292.4025 808.505 -293.125 808.25 C-297.75852392 806.23542438 -301.47314306 803.57083272 -305 800 C-306.30471691 798.84531214 -307.61769597 797.69991268 -308.9375 796.5625 C-314.91917808 791.34092466 -314.91917808 791.34092466 -317 789 C-317 788.34 -317 787.68 -317 787 C-317.66 786.67 -318.32 786.34 -319 786 C-323.4077121 781.10572228 -327.35955717 776.06029779 -330.0703125 770.0390625 C-330.9943164 767.93952742 -330.9943164 767.93952742 -332.2421875 765.7734375 C-339.72304689 752.18394736 -340.58728847 737.75385568 -336.85546875 722.94921875 C-335.21541442 717.29515016 -332.68181421 712.23592299 -330 707 C-332.28277302 704.20994409 -334.51324202 701.48675798 -337.0625 698.9375 C-339.24945223 696.75054777 -341.16543736 694.48976358 -343 692 C-343 691.34 -343 690.68 -343 690 C-343.66 690 -344.32 690 -345 690 C-346.02611949 688.34928604 -347.02308143 686.68029994 -348 685 C-348.7734375 684.2575 -348.7734375 684.2575 -349.5625 683.5 C-351.42739894 681.5540185 -352.11476258 679.51952188 -353 677 C-353.66 677 -354.32 677 -355 677 C-356.55078125 674.83984375 -356.55078125 674.83984375 -358.3125 671.9375 C-360.38978462 668.55920205 -362.4744113 665.28145919 -364.875 662.125 C-366.85349041 659.21545528 -367.68575213 657.4567266 -368 654 C-368.66 654 -369.32 654 -370 654 C-373.90335131 647.02128099 -377.55935295 639.94440361 -381.09863281 632.77661133 C-382.88230661 629.17965028 -384.72558618 625.65703384 -386.75 622.1875 C-388.99934615 618.24550206 -390.48883914 614.17434418 -391.91015625 609.87109375 C-392.79303766 607.54522337 -393.75585538 605.47907436 -394.8984375 603.28125 C-397.24087403 598.68790799 -398.90981146 593.93885966 -400.5625 589.0625 C-400.85318359 588.22009766 -401.14386719 587.37769531 -401.44335938 586.50976562 C-402.30381801 584.00923819 -403.1527968 581.50504504 -404 579 C-404.26796387 578.22019775 -404.53592773 577.44039551 -404.81201172 576.63696289 C-411.91652224 555.76272468 -415.37170438 533.82147964 -418 512 C-418.17917969 510.77023437 -418.35835937 509.54046875 -418.54296875 508.2734375 C-420.83920298 489.75990871 -420.39303926 467.69810482 -414 450 C-413.38750679 447.81481679 -412.78375967 445.62716847 -412.1875 443.4375 C-408.82052181 431.66545495 -404.4054561 421.42998727 -398 411 C-397.28568818 409.73251742 -396.5762558 408.46225244 -395.875 407.1875 C-393.76031867 403.59254174 -391.55687513 400.2970232 -389 397 C-388.34 397 -387.68 397 -387 397 C-386.731875 396.195625 -386.46375 395.39125 -386.1875 394.5625 C-385.795625 393.716875 -385.40375 392.87125 -385 392 C-384.01 391.67 -383.02 391.34 -382 391 C-381.29877966 389.68451064 -380.63637791 388.34805244 -380 387 C-374.33518005 380.21674124 -367.15122686 375.09267595 -360 370 C-359.06285156 369.31808594 -358.12570312 368.63617188 -357.16015625 367.93359375 C-349.49581595 362.56119609 -341.38540718 358.67754906 -332.87866211 354.86303711 C-331.15315513 354.07035781 -329.45560246 353.21755493 -327.76171875 352.359375 C-325.40086343 351.19731326 -323.19661311 350.32326688 -320.6875 349.5625 C-315.95965234 348.05087524 -311.49564437 346.09371617 -307 344 C-306.97236643 342.64595503 -306.95332578 341.29173445 -306.9375 339.9375 C-306.92589844 339.18339844 -306.91429687 338.42929687 -306.90234375 337.65234375 C-307.02285212 334.37933654 -307.50978595 331.23995775 -308 328 C-308.51281142 324.23085411 -309.00560462 320.45910042 -309.5 316.6875 C-309.63019531 315.70587891 -309.76039063 314.72425781 -309.89453125 313.71289062 C-310.61505984 308.21431133 -311.25240906 302.7224966 -311.73632812 297.19775391 C-312.00364532 294.96961558 -312.45501303 292.86296132 -313 290.6875 C-313.85589939 287.10771644 -314.21389174 283.67356435 -314.4375 280 C-314.92423398 272.55992344 -316.27461777 265.36185979 -317.63134766 258.04394531 C-318.7451488 251.86861873 -319.62794269 245.65090833 -320.5 239.4375 C-320.95306451 236.32268152 -321.46928796 233.22732403 -322 230.125 C-322.60567405 226.54439753 -323.14121537 222.98847374 -323.5 219.375 C-323.81149426 216.2711822 -324.33373873 213.29716553 -325 210.25 C-326.06255933 205.21268171 -326.44414912 200.21124308 -326.75390625 195.078125 C-326.95159258 192.04015673 -326.95159258 192.04015673 -327.46875 189.2265625 C-328.18492897 184.87682847 -328.54685484 180.51429375 -328.9375 176.125 C-329.50891687 169.8264154 -330.16905754 163.57326473 -331.0625 157.3125 C-333.90822775 134.93369698 -335.5105403 108.76727579 -326.9296875 87.359375 C-325.64572261 84.10090949 -324.48344389 80.80027047 -323.3125 77.5 C-322.87550781 76.2728125 -322.43851562 75.045625 -321.98828125 73.78125 C-321.66214844 72.8634375 -321.33601563 71.945625 -321 71 C-320.34 71 -319.68 71 -319 71 C-318.896875 70.29875 -318.79375 69.5975 -318.6875 68.875 C-317.90640997 65.60862353 -316.57941257 62.9528148 -315 60 C-314.34 60 -313.68 60 -313 60 C-312.5978125 58.9171875 -312.5978125 58.9171875 -312.1875 57.8125 C-310.15297155 52.99387998 -307.73527142 49.6254105 -304 46 C-303.11716224 44.92304429 -302.24243686 43.83939864 -301.375 42.75 C-300.59125 41.8425 -299.8075 40.935 -299 40 C-298.34 40 -297.68 40 -297 40 C-296.67 39.01 -296.34 38.02 -296 37 C-292.51537395 33.7806396 -288.74273968 30.91273818 -285 28 C-284.37351562 27.50886719 -283.74703125 27.01773438 -283.1015625 26.51171875 C-271.0676141 17.500933 -256.8569554 11.97786094 -242 10 C-241.20851563 9.88914062 -240.41703125 9.77828125 -239.6015625 9.6640625 C-230.59431453 8.52662846 -222.80595614 9.26970723 -214 11.4375 C-212.4840625 11.80681641 -212.4840625 11.80681641 -210.9375 12.18359375 C-208.18831955 12.94766119 -205.62402985 13.88575203 -203 15 C-203 15.66 -203 16.32 -203 17 C-202.30003906 17.06703125 -201.60007812 17.1340625 -200.87890625 17.203125 C-197.17279719 18.22896794 -194.77861282 20.27698104 -191.9375 22.75 C-191.1630957 23.39582031 -191.1630957 23.39582031 -190.37304688 24.0546875 C-171.37507168 40.22111735 -169.31290933 63.53102575 -167.4375 86.6875 C-167.31093595 88.21682912 -167.18398421 89.74612621 -167.05664062 91.27539062 C-166.87164684 93.49930832 -166.68677767 95.723235 -166.5027771 97.94723511 C-165.52065382 110.00353444 -165.52065382 110.00353444 -164 122 C-163.56484095 125.37333254 -163.15889827 128.75034785 -162.75 132.12695312 C-161.9866599 138.33505506 -160.95692061 144.38284683 -159.5 150.4609375 C-159.10305852 152.47665596 -158.81423186 154.51360469 -158.56396484 156.55273438 C-157.98228809 161.28621107 -157.2390061 165.98802553 -156.4765625 170.6953125 C-156.32972015 171.60521942 -156.18287781 172.51512634 -156.03158569 173.4526062 C-155.72139247 175.37055047 -155.41039459 177.28836476 -155.09863281 179.20605469 C-154.62984638 182.09513233 -154.16638724 184.98503214 -153.703125 187.875 C-152.06918176 197.98612537 -150.30210953 208.01568933 -148 218 C-147.68546875 216.91203125 -147.3709375 215.8240625 -147.046875 214.703125 C-145.09583238 207.99248862 -143.14616905 201.29853859 -140.875 194.6875 C-139.62710526 191.02273402 -138.57196542 187.39335875 -137.6875 183.625 C-135.56276202 174.76414216 -132.5943382 166.14196101 -129.79736328 157.47607422 C-125.89809498 145.36756867 -122.4008623 133.13884418 -118.85058594 120.92480469 C-117.63366466 116.74032797 -116.41294784 112.5569872 -115.1875 108.375 C-114.89564819 107.37388184 -114.89564819 107.37388184 -114.59790039 106.35253906 C-113.76387591 103.50959066 -112.89537405 100.68807411 -111.953125 97.87890625 C-111.04132716 95.12482836 -110.28412947 92.37155484 -109.5625 89.5625 C-108.38331921 85.17168106 -106.84873664 81.15965745 -105 77 C-103.94784238 74.01648456 -102.96341409 71.0132313 -102 68 C-101.34 68 -100.68 68 -100 68 C-99.89300781 67.27683594 -99.78601563 66.55367188 -99.67578125 65.80859375 C-98.943791 62.76639151 -97.83943744 60.70978202 -96.1875 58.0625 C-95.64738281 57.19496094 -95.10726563 56.32742187 -94.55078125 55.43359375 C-94.03902344 54.63050781 -93.52726562 53.82742187 -93 53 C-92.29875 51.88625 -91.5975 50.7725 -90.875 49.625 C-89.0736316 47.10308424 -87.21862943 45.15524002 -85 43 C-84.04130272 41.83363239 -83.08302608 40.66691899 -82.125 39.5 C-73.93914313 30.10207419 -63.81188681 22.1360065 -53 16 C-52.36320312 15.63777344 -51.72640625 15.27554688 -51.0703125 14.90234375 C-36.67438836 7.2718861 -20.57196461 1.95370403 -4.2578125 1.17578125 C-1.96603968 1.13986948 -1.96603968 1.13986948 0 0 Z " fill="#FEFEFE" transform="translate(589,31)"/>
<path d="M0 0 C0.66 0.33 1.32 0.66 2 1 C3.39644271 0.99412024 4.79280474 0.94508519 6.1875 0.875 C15.64899602 0.7649826 24.98119579 3.33719516 34 6 C34 6.66 34 7.32 34 8 C34.72316406 8.10828125 35.44632813 8.2165625 36.19140625 8.328125 C46.41343447 10.77345025 55.57450364 19.284575 61 28 C61 28.66 61 29.32 61 30 C61.66 30 62.32 30 63 30 C73.81898693 51.72349945 72.30357574 71.91226348 68 95 C67.34 95 66.68 95 66 95 C65.95101563 95.65226562 65.90203125 96.30453125 65.8515625 96.9765625 C65.77679687 97.85054688 65.70203125 98.72453125 65.625 99.625 C65.55539062 100.48351562 65.48578125 101.34203125 65.4140625 102.2265625 C64.9512631 105.3264453 63.99491962 108.02730891 63 111 C62.37952766 113.23963862 61.77921369 115.48492474 61.1953125 117.734375 C61.03128433 118.36565308 60.86725616 118.99693115 60.69825745 119.64733887 C60.17117921 121.68088276 59.64778337 123.71534807 59.125 125.75 C58.9460318 126.44363647 58.7670636 127.13727295 58.58267212 127.85192871 C56.31019616 136.66868188 54.13445594 145.49549306 52.22705078 154.39941406 C51.42497969 158.13639769 50.5405314 161.82235461 49.5 165.5 C46.2864605 176.88710734 44.01933144 188.56301615 41.80859375 200.1796875 C41.17263418 203.18436603 40.44544187 206.10832063 39.66015625 209.07421875 C37.50092552 217.62070269 36.04458457 226.30044789 34.52050781 234.9777832 C34.00642599 237.90096049 33.48419951 240.82259439 32.9609375 243.74414062 C31.11032529 254.15939141 29.4111441 264.57834168 28.00585938 275.06382751 C27.35018323 279.88751937 26.48104835 284.57173319 25.375 289.3125 C24.82331409 292.75163878 24.62533068 294.31047302 26.296875 297.38671875 C28.07926194 299.44712759 29.951761 301.20832538 32 303 C32.680625 303.886875 33.36125 304.77375 34.0625 305.6875 C35.97163244 307.96614194 38.04578204 309.6987384 40.359375 311.55078125 C42.94791944 313.83732884 45.10921152 316.46718723 47.34375 319.09375 C49.09008095 321.15649843 49.09008095 321.15649843 51.5625 323.5 C54.15019834 326.15404958 56.26430498 328.95001255 58.44140625 331.94140625 C60.44473145 334.58740219 62.64414983 337.02355661 64.8984375 339.45703125 C66 341 66 341 66 344 C66.66 344 67.32 344 68 344 C69.5078125 345.8984375 69.5078125 345.8984375 71.125 348.375 C71.66382813 349.18710937 72.20265625 349.99921875 72.7578125 350.8359375 C74 353 74 353 74 355 C74.66 355 75.32 355 76 355 C76 355.99 76 356.98 76 358 C76.66 358 77.32 358 78 358 C78.39832031 358.73605469 78.79664063 359.47210938 79.20703125 360.23046875 C79.73683594 361.20628906 80.26664063 362.18210937 80.8125 363.1875 C81.33457031 364.15042969 81.85664062 365.11335938 82.39453125 366.10546875 C83.38846244 367.89744688 84.40623516 369.67669654 85.4609375 371.43359375 C91.07653331 380.79767103 95.77594368 390.37152044 99.67578125 400.5625 C100.5441217 402.8165991 101.47639455 405.04731182 102.4765625 407.24609375 C104.5445068 412.01868276 105.74936377 417.04168502 107.0625 422.0625 C107.57264929 423.99130121 108.08432613 425.91969915 108.59765625 427.84765625 C108.83701904 428.74790527 109.07638184 429.6481543 109.32299805 430.57568359 C109.86641349 432.52163216 110.49419679 434.44392872 111.1484375 436.35546875 C112.01531896 439.04757309 112.35962331 441.43562553 112.5625 444.25 C112.7887928 447.75867965 112.7887928 447.75867965 114 451 C114.51157261 455.29729399 114.76120717 459.62092772 115.0625 463.9375 C115.15120361 465.1961084 115.23990723 466.4547168 115.33129883 467.75146484 C115.82723664 475.21192907 116.18675869 482.64738725 116.1875 490.125 C116.1882251 490.90480225 116.1889502 491.68460449 116.18969727 492.48803711 C116.13662435 497.7267513 116.13662435 497.7267513 115 500 C114.84065547 501.90352111 114.68677599 503.80762143 114.55688477 505.71337891 C113.71187285 517.49817589 111.71062822 529.02293524 109.5625 540.625 C109.33575592 541.86231873 109.33575592 541.86231873 109.10443115 543.12463379 C107.04536064 554.30942704 104.67146928 565.21505899 101 576 C100.58136724 577.43692866 100.16498902 578.87451479 99.75 580.3125 C96.59729566 590.85335995 92.99695653 601.26357239 88.2734375 611.20703125 C86.75986063 614.52668605 85.44434516 617.91273217 84.125 621.3125 C81.59104001 627.8060327 78.6186825 633.9824153 75.41796875 640.171875 C73.93051832 642.97092082 73.93051832 642.97092082 73 646 C72.34 646 71.68 646 71 646 C70.75378906 646.84046875 70.50757813 647.6809375 70.25390625 648.546875 C68.85145678 652.4090723 67.02371998 655.726938 64.9375 659.25 C64.21713084 660.48418999 63.49706494 661.71855704 62.77734375 662.953125 C62.19082031 663.95859375 61.60429688 664.9640625 61 666 C60.67 666.66 60.34 667.32 60 668 C59.34 668 58.68 668 58 668 C57.7525 668.70125 57.505 669.4025 57.25 670.125 C55.83835134 673.37179192 54.02013415 676.11683385 52 679 C51.55140625 679.67417969 51.1028125 680.34835937 50.640625 681.04296875 C45.37456137 688.82475089 39.39676032 696.01382112 33.42700195 703.2578125 C32.18738206 704.77123039 30.96692803 706.3003076 29.75 707.83203125 C27.66333888 710.41706902 25.37680686 712.67846772 23 715 C22.10667969 715.92619141 22.10667969 715.92619141 21.1953125 716.87109375 C20.57398438 717.51175781 19.95265625 718.15242187 19.3125 718.8125 C18.73113281 719.41707031 18.14976562 720.02164063 17.55078125 720.64453125 C16 722 16 722 14 722 C13.67 722.99 13.34 723.98 13 725 C12.34 725 11.68 725 11 725 C10.67 725.99 10.34 726.98 10 728 C7.98828125 729.83984375 7.98828125 729.83984375 5.3125 731.9375 C1.38157192 735.06286824 -2.45249992 738.24756482 -6.22216797 741.56518555 C-13.79130984 748.20611488 -21.46402062 754.43038205 -31 758 C-31 758.66 -31 759.32 -31 760 C-31.886875 760.4125 -32.77375 760.825 -33.6875 761.25 C-36.81312366 762.90127288 -39.31905614 764.71331259 -42 767 C-41.5359375 768.4540625 -41.5359375 768.4540625 -41.0625 769.9375 C-37.50460785 782.61884418 -39.02435644 793.36716409 -45 805 C-45.433125 806.03125 -45.86625 807.0625 -46.3125 808.125 C-53.29444034 820.02015761 -64.87179296 828.01696738 -77 834 C-78.06734375 834.52722656 -79.1346875 835.05445313 -80.234375 835.59765625 C-85.95768275 838.33167768 -91.57188219 840.68865012 -97.6953125 842.3515625 C-99.90183814 842.97238158 -101.98457221 843.74671431 -104.125 844.5625 C-110.84185217 846.83315268 -117.98562069 847.27437455 -125 848 C-125.98871094 848.12503906 -126.97742188 848.25007812 -127.99609375 848.37890625 C-136.89955591 849.37659917 -145.73855022 848.72464347 -154.65087891 848.1484375 C-156.67646046 848.02044399 -158.70340618 847.91438377 -160.73046875 847.8125 C-169.85426544 847.29908588 -178.7704004 845.87444465 -187.77148438 844.36865234 C-190.94767265 843.84323119 -194.12965605 843.35824001 -197.3125 842.875 C-201.21400615 842.2811793 -205.10832621 841.65531878 -209 841 C-209 840.34 -209 839.68 -209 839 C-209.72445312 838.95101562 -210.44890625 838.90203125 -211.1953125 838.8515625 C-212.16210938 838.77679687 -213.12890625 838.70203125 -214.125 838.625 C-215.55199219 838.52058594 -215.55199219 838.52058594 -217.0078125 838.4140625 C-220.21357445 837.97044531 -222.9438708 837.05686366 -226 836 C-229.32399131 835.16477533 -232.65119797 834.3599038 -235.99023438 833.58789062 C-240.56908763 832.48598059 -244.67955232 830.9123293 -249 829 C-250.80185608 828.40428432 -252.61368648 827.83715868 -254.4375 827.3125 C-255.73494141 826.93544922 -255.73494141 826.93544922 -257.05859375 826.55078125 C-257.69925781 826.36902344 -258.33992187 826.18726563 -259 826 C-259 825.34 -259 824.68 -259 824 C-259.68835938 824.06058594 -260.37671875 824.12117187 -261.0859375 824.18359375 C-264.79281658 823.95005043 -267.29580438 822.68883119 -270.625 821.0625 C-275.22829459 818.82413974 -275.22829459 818.82413974 -280 817 C-280 816.34 -280 815.68 -280 815 C-280.969375 814.87625 -281.93875 814.7525 -282.9375 814.625 C-283.948125 814.41875 -284.95875 814.2125 -286 814 C-286.33 813.34 -286.66 812.68 -287 812 C-289.02463255 811.34786708 -289.02463255 811.34786708 -291 811 C-291 810.34 -291 809.68 -291 809 C-291.70125 808.7525 -292.4025 808.505 -293.125 808.25 C-297.75852392 806.23542438 -301.47314306 803.57083272 -305 800 C-306.30471691 798.84531214 -307.61769597 797.69991268 -308.9375 796.5625 C-314.91917808 791.34092466 -314.91917808 791.34092466 -317 789 C-317 788.34 -317 787.68 -317 787 C-317.66 786.67 -318.32 786.34 -319 786 C-323.4077121 781.10572228 -327.35955717 776.06029779 -330.0703125 770.0390625 C-330.9943164 767.93952742 -330.9943164 767.93952742 -332.2421875 765.7734375 C-339.72304689 752.18394736 -340.58728847 737.75385568 -336.85546875 722.94921875 C-335.21541442 717.29515016 -332.68181421 712.23592299 -330 707 C-332.28277302 704.20994409 -334.51324202 701.48675798 -337.0625 698.9375 C-339.24945223 696.75054777 -341.16543736 694.48976358 -343 692 C-343 691.34 -343 690.68 -343 690 C-343.66 690 -344.32 690 -345 690 C-346.02611949 688.34928604 -347.02308143 686.68029994 -348 685 C-348.7734375 684.2575 -348.7734375 684.2575 -349.5625 683.5 C-351.42739894 681.5540185 -352.11476258 679.51952188 -353 677 C-353.66 677 -354.32 677 -355 677 C-356.55078125 674.83984375 -356.55078125 674.83984375 -358.3125 671.9375 C-360.38978462 668.55920205 -362.4744113 665.28145919 -364.875 662.125 C-366.85349041 659.21545528 -367.68575213 657.4567266 -368 654 C-368.66 654 -369.32 654 -370 654 C-373.90335131 647.02128099 -377.55935295 639.94440361 -381.09863281 632.77661133 C-382.88230661 629.17965028 -384.72558618 625.65703384 -386.75 622.1875 C-388.99934615 618.24550206 -390.48883914 614.17434418 -391.91015625 609.87109375 C-392.79303766 607.54522337 -393.75585538 605.47907436 -394.8984375 603.28125 C-397.24087403 598.68790799 -398.90981146 593.93885966 -400.5625 589.0625 C-400.85318359 588.22009766 -401.14386719 587.37769531 -401.44335938 586.50976562 C-402.30381801 584.00923819 -403.1527968 581.50504504 -404 579 C-404.26796387 578.22019775 -404.53592773 577.44039551 -404.81201172 576.63696289 C-411.91652224 555.76272468 -415.37170438 533.82147964 -418 512 C-418.17917969 510.77023437 -418.35835937 509.54046875 -418.54296875 508.2734375 C-420.83920298 489.75990871 -420.39303926 467.69810482 -414 450 C-413.38750679 447.81481679 -412.78375967 445.62716847 -412.1875 443.4375 C-408.82052181 431.66545495 -404.4054561 421.42998727 -398 411 C-397.28568818 409.73251742 -396.5762558 408.46225244 -395.875 407.1875 C-393.76031867 403.59254174 -391.55687513 400.2970232 -389 397 C-388.34 397 -387.68 397 -387 397 C-386.731875 396.195625 -386.46375 395.39125 -386.1875 394.5625 C-385.795625 393.716875 -385.40375 392.87125 -385 392 C-384.01 391.67 -383.02 391.34 -382 391 C-381.29877966 389.68451064 -380.63637791 388.34805244 -380 387 C-374.33518005 380.21674124 -367.15122686 375.09267595 -360 370 C-359.06285156 369.31808594 -358.12570312 368.63617188 -357.16015625 367.93359375 C-349.49581595 362.56119609 -341.38540718 358.67754906 -332.87866211 354.86303711 C-331.15315513 354.07035781 -329.45560246 353.21755493 -327.76171875 352.359375 C-325.40086343 351.19731326 -323.19661311 350.32326688 -320.6875 349.5625 C-315.95965234 348.05087524 -311.49564437 346.09371617 -307 344 C-306.97236643 342.64595503 -306.95332578 341.29173445 -306.9375 339.9375 C-306.92589844 339.18339844 -306.91429687 338.42929687 -306.90234375 337.65234375 C-307.02285212 334.37933654 -307.50978595 331.23995775 -308 328 C-308.51281142 324.23085411 -309.00560462 320.45910042 -309.5 316.6875 C-309.63019531 315.70587891 -309.76039063 314.72425781 -309.89453125 313.71289062 C-310.61505984 308.21431133 -311.25240906 302.7224966 -311.73632812 297.19775391 C-312.00364532 294.96961558 -312.45501303 292.86296132 -313 290.6875 C-313.85589939 287.10771644 -314.21389174 283.67356435 -314.4375 280 C-314.92423398 272.55992344 -316.27461777 265.36185979 -317.63134766 258.04394531 C-318.7451488 251.86861873 -319.62794269 245.65090833 -320.5 239.4375 C-320.95306451 236.32268152 -321.46928796 233.22732403 -322 230.125 C-322.60567405 226.54439753 -323.14121537 222.98847374 -323.5 219.375 C-323.81149426 216.2711822 -324.33373873 213.29716553 -325 210.25 C-326.06255933 205.21268171 -326.44414912 200.21124308 -326.75390625 195.078125 C-326.95159258 192.04015673 -326.95159258 192.04015673 -327.46875 189.2265625 C-328.18492897 184.87682847 -328.54685484 180.51429375 -328.9375 176.125 C-329.50891687 169.8264154 -330.16905754 163.57326473 -331.0625 157.3125 C-333.90822775 134.93369698 -335.5105403 108.76727579 -326.9296875 87.359375 C-325.64572261 84.10090949 -324.48344389 80.80027047 -323.3125 77.5 C-322.87550781 76.2728125 -322.43851562 75.045625 -321.98828125 73.78125 C-321.66214844 72.8634375 -321.33601563 71.945625 -321 71 C-320.34 71 -319.68 71 -319 71 C-318.896875 70.29875 -318.79375 69.5975 -318.6875 68.875 C-317.90640997 65.60862353 -316.57941257 62.9528148 -315 60 C-314.34 60 -313.68 60 -313 60 C-312.5978125 58.9171875 -312.5978125 58.9171875 -312.1875 57.8125 C-310.15297155 52.99387998 -307.73527142 49.6254105 -304 46 C-303.11716224 44.92304429 -302.24243686 43.83939864 -301.375 42.75 C-300.59125 41.8425 -299.8075 40.935 -299 40 C-298.34 40 -297.68 40 -297 40 C-296.67 39.01 -296.34 38.02 -296 37 C-292.51537395 33.7806396 -288.74273968 30.91273818 -285 28 C-284.37351562 27.50886719 -283.74703125 27.01773438 -283.1015625 26.51171875 C-271.0676141 17.500933 -256.8569554 11.97786094 -242 10 C-241.20851563 9.88914062 -240.41703125 9.77828125 -239.6015625 9.6640625 C-230.59431453 8.52662846 -222.80595614 9.26970723 -214 11.4375 C-212.4840625 11.80681641 -212.4840625 11.80681641 -210.9375 12.18359375 C-208.18831955 12.94766119 -205.62402985 13.88575203 -203 15 C-203 15.66 -203 16.32 -203 17 C-202.30003906 17.06703125 -201.60007812 17.1340625 -200.87890625 17.203125 C-197.17279719 18.22896794 -194.77861282 20.27698104 -191.9375 22.75 C-191.1630957 23.39582031 -191.1630957 23.39582031 -190.37304688 24.0546875 C-171.37507168 40.22111735 -169.31290933 63.53102575 -167.4375 86.6875 C-167.31093595 88.21682912 -167.18398421 89.74612621 -167.05664062 91.27539062 C-166.87164684 93.49930832 -166.68677767 95.723235 -166.5027771 97.94723511 C-165.52065382 110.00353444 -165.52065382 110.00353444 -164 122 C-163.56484095 125.37333254 -163.15889827 128.75034785 -162.75 132.12695312 C-161.9866599 138.33505506 -160.95692061 144.38284683 -159.5 150.4609375 C-159.10305852 152.47665596 -158.81423186 154.51360469 -158.56396484 156.55273438 C-157.98228809 161.28621107 -157.2390061 165.98802553 -156.4765625 170.6953125 C-156.32972015 171.60521942 -156.18287781 172.51512634 -156.03158569 173.4526062 C-155.72139247 175.37055047 -155.41039459 177.28836476 -155.09863281 179.20605469 C-154.62984638 182.09513233 -154.16638724 184.98503214 -153.703125 187.875 C-152.06918176 197.98612537 -150.30210953 208.01568933 -148 218 C-147.68546875 216.91203125 -147.3709375 215.8240625 -147.046875 214.703125 C-145.09583238 207.99248862 -143.14616905 201.29853859 -140.875 194.6875 C-139.62710526 191.02273402 -138.57196542 187.39335875 -137.6875 183.625 C-135.56276202 174.76414216 -132.5943382 166.14196101 -129.79736328 157.47607422 C-125.89809498 145.36756867 -122.4008623 133.13884418 -118.85058594 120.92480469 C-117.63366466 116.74032797 -116.41294784 112.5569872 -115.1875 108.375 C-114.89564819 107.37388184 -114.89564819 107.37388184 -114.59790039 106.35253906 C-113.76387591 103.50959066 -112.89537405 100.68807411 -111.953125 97.87890625 C-111.04132716 95.12482836 -110.28412947 92.37155484 -109.5625 89.5625 C-108.38331921 85.17168106 -106.84873664 81.15965745 -105 77 C-103.94784238 74.01648456 -102.96341409 71.0132313 -102 68 C-101.34 68 -100.68 68 -100 68 C-99.89300781 67.27683594 -99.78601563 66.55367188 -99.67578125 65.80859375 C-98.943791 62.76639151 -97.83943744 60.70978202 -96.1875 58.0625 C-95.64738281 57.19496094 -95.10726563 56.32742187 -94.55078125 55.43359375 C-94.03902344 54.63050781 -93.52726562 53.82742187 -93 53 C-92.29875 51.88625 -91.5975 50.7725 -90.875 49.625 C-89.0736316 47.10308424 -87.21862943 45.15524002 -85 43 C-84.04130272 41.83363239 -83.08302608 40.66691899 -82.125 39.5 C-73.93914313 30.10207419 -63.81188681 22.1360065 -53 16 C-52.36320312 15.63777344 -51.72640625 15.27554688 -51.0703125 14.90234375 C-36.67438836 7.2718861 -20.57196461 1.95370403 -4.2578125 1.17578125 C-1.96603968 1.13986948 -1.96603968 1.13986948 0 0 Z M-70.01953125 61.421875 C-79.96866323 74.80716317 -85.01897816 90.18425437 -89.375 106.0625 C-92.77026476 118.30440512 -96.44050142 130.3976828 -100.5 142.4375 C-102.47451381 148.3119852 -104.26435067 154.2183896 -105.984375 160.17163086 C-107.7222489 166.14758381 -109.59780973 172.07453444 -111.5 178 C-116.28856145 192.98335783 -120.58708311 208.0480954 -124.625 223.25 C-124.81922546 223.97956909 -125.01345093 224.70913818 -125.21356201 225.46081543 C-127.09619447 232.54483495 -128.94150785 239.62336855 -130.54296875 246.77734375 C-131.48359977 250.94880973 -132.56978383 255.02526079 -133.82421875 259.11328125 C-140.14556965 279.87134295 -139.72058206 298.42911971 -137.49609375 319.796875 C-137.01301801 324.5525067 -136.79546354 329.28744203 -136.625 334.0625 C-135.98594555 349.67854333 -133.62651898 365.4380916 -130.43969727 380.72827148 C-129.7488911 384.29737272 -129.33684541 387.88852844 -128.9375 391.5 C-128.5347439 396.39790836 -128.5347439 396.39790836 -127 401 C-127.66 401 -128.32 401 -129 401 C-129.06960938 400.22785156 -129.13921875 399.45570313 -129.2109375 398.66015625 C-130.30672466 393.57722274 -132.47101155 389.15244624 -134.625 384.4375 C-145.77488206 359.3076253 -153.61342496 332.15024097 -158 305 C-158.3728372 303.08291144 -158.74768669 301.16621261 -159.125 299.25 C-160.02822203 294.33079905 -160.43605035 289.42198535 -160.75390625 284.43359375 C-160.85518086 281.99384192 -160.85518086 281.99384192 -162 280 C-162.31397751 278.10988844 -162.58388484 276.21237551 -162.83203125 274.3125 C-162.98865234 273.14823486 -163.14527344 271.98396973 -163.30664062 270.78442383 C-163.47357422 269.53556396 -163.64050781 268.2867041 -163.8125 267 C-165.03077733 258.15242824 -166.39535745 249.45371636 -168.49267578 240.7734375 C-170.33535886 232.97425868 -171.49821199 225.06786375 -172.69335938 217.14770508 C-172.84998047 216.1192749 -173.00660156 215.09084473 -173.16796875 214.03125 C-173.30485107 213.10892578 -173.4417334 212.18660156 -173.58276367 211.23632812 C-173.8987895 208.97276841 -173.8987895 208.97276841 -175 207 C-175.31120284 204.44122107 -175.50964666 201.88148388 -175.71875 199.3125 C-175.87136047 196.97731545 -175.87136047 196.97731545 -177 195 C-177.27535118 193.43294903 -177.50870299 191.85838261 -177.71875 190.28125 C-177.91017578 188.88326172 -177.91017578 188.88326172 -178.10546875 187.45703125 C-178.36848958 185.48567708 -178.63151042 183.51432292 -178.89453125 181.54296875 C-179.08595703 180.14498047 -179.08595703 180.14498047 -179.28125 178.71875 C-179.45237305 177.43387695 -179.45237305 177.43387695 -179.62695312 176.12304688 C-179.90382939 173.95427909 -179.90382939 173.95427909 -181 172 C-181.47004201 168.59219544 -181.86753262 165.18392717 -182.25 161.765625 C-182.65544511 157.75664159 -182.65544511 157.75664159 -184 154 C-184.4270643 151.00174635 -184.80838946 148.01155158 -185.15625 145.00390625 C-185.2634436 144.10059067 -185.37063721 143.19727509 -185.4810791 142.2665863 C-185.70806227 140.3476097 -185.93322965 138.4284176 -186.15673828 136.5090332 C-186.49503188 133.60514594 -186.83879096 130.70194891 -187.18359375 127.79882812 C-189.19090653 110.7937538 -189.19090653 110.7937538 -189.77148438 102.84350586 C-189.90738677 100.90706948 -189.90738677 100.90706948 -191 99 C-191.17738467 96.67231271 -191.29895212 94.34029145 -191.39453125 92.0078125 C-191.46344108 90.56506807 -191.53312938 89.12236065 -191.60351562 87.6796875 C-191.70978309 85.41816016 -191.81126859 83.15687015 -191.89868164 80.89453125 C-192.48653599 66.09173645 -194.89838735 52.39093393 -206.1875 41.75 C-217.64862148 32.86887123 -228.92559288 32.90632741 -242.7421875 34.40625 C-256.22981776 36.73064887 -267.94961053 43.91359104 -278 53 C-278.69480469 53.62519531 -279.38960938 54.25039062 -280.10546875 54.89453125 C-294.53937418 68.60255362 -307.64131329 90.79193605 -308.24291992 111.14257812 C-308.24927205 112.60546085 -308.2446784 114.0684225 -308.23046875 115.53125 C-308.23001053 116.32543335 -308.22955231 117.1196167 -308.2290802 117.93786621 C-308.22607663 119.61191306 -308.21824766 121.28595759 -308.20581055 122.95996094 C-308.18774798 125.46560085 -308.18530015 127.97086469 -308.18554688 130.4765625 C-308.15692886 143.94874046 -307.79715577 157.3657981 -305.625 170.6875 C-304.08382565 180.71610755 -303.04106522 190.77536234 -302.09033203 200.87573242 C-301.91993408 202.6291394 -301.91993408 202.6291394 -301.74609375 204.41796875 C-301.64997803 205.44688232 -301.5538623 206.4757959 -301.45483398 207.53588867 C-301.08731813 210.33496673 -300.61137105 213.02769287 -300.04321289 215.78881836 C-299.00713525 220.82440933 -298.24845812 225.86728874 -297.5625 230.9609375 C-297.43689697 231.87275787 -297.31129395 232.78457825 -297.18188477 233.72402954 C-296.78504692 236.60730067 -296.39220332 239.4910951 -296 242.375 C-294.71399036 260.71324152 -294.71399036 260.71324152 -290 278 C-289.74466641 279.51866868 -289.53612598 281.0453348 -289.3515625 282.57421875 C-289.23474121 283.5377124 -289.11791992 284.50120605 -288.99755859 285.49389648 C-288.87461426 286.54778564 -288.75166992 287.6016748 -288.625 288.6875 C-288.49561035 289.77426025 -288.3662207 290.86102051 -288.23291016 291.98071289 C-287.47577846 298.47569726 -286.7924314 304.97517267 -286.171875 311.484375 C-286.10467255 312.18927567 -286.03747009 312.89417633 -285.9682312 313.62043762 C-285.63837087 317.10198803 -285.31605907 320.58408825 -285.00244141 324.06713867 C-284.88562012 325.33275635 -284.76879883 326.59837402 -284.6484375 327.90234375 C-284.54708496 329.03148193 -284.44573242 330.16062012 -284.34130859 331.32397461 C-284.15392438 333.96753339 -284.15392438 333.96753339 -283 336 C-282.88943483 337.6077975 -282.8408593 339.22004725 -282.82299805 340.83154297 C-282.80403976 342.34891556 -282.80403976 342.34891556 -282.78469849 343.89694214 C-282.77711517 345.00087311 -282.76953186 346.10480408 -282.76171875 347.2421875 C-282.75187958 348.38503204 -282.74204041 349.52787659 -282.73190308 350.70535278 C-282.4010248 399.16815546 -285.39268322 443.31387358 -319.83984375 480.65625 C-321.81402177 482.79821531 -323.72632236 484.97874749 -325.625 487.1875 C-328.48961075 490.49488431 -331.53555617 493.55008605 -334.71484375 496.5546875 C-336.2214964 497.92675739 -336.2214964 497.92675739 -336 500 C-336.99 500.33 -337.98 500.66 -339 501 C-340.78255008 502.75881906 -340.78255008 502.75881906 -342.5 504.875 C-344.58734869 507.35601533 -346.69291774 509.72284833 -349 512 C-348.29037109 510.792229 -348.29037109 510.792229 -347.56640625 509.56005859 C-345.7690351 506.50006049 -343.97241842 503.43962183 -342.17626953 500.37890625 C-341.40670281 499.06786356 -340.63685722 497.7569845 -339.86669922 496.44628906 C-315.631507 455.1989423 -303.09371642 418.1306294 -304 370 C-310.33488746 371.17561341 -315.96304857 373.00346084 -321.8125 375.6875 C-322.98643311 376.22032593 -322.98643311 376.22032593 -324.18408203 376.76391602 C-335.41256538 381.94407279 -345.30674441 388.3255965 -355 396 C-355.70769531 396.54011719 -356.41539062 397.08023437 -357.14453125 397.63671875 C-369.56786278 407.6816528 -379.55738067 422.99885568 -384.859375 437.859375 C-386 441 -386 441 -387.4765625 444.23828125 C-389.46358017 448.81119564 -390.5093372 453.59263097 -391.625 458.4375 C-391.8415625 459.34048828 -392.058125 460.24347656 -392.28125 461.17382812 C-398.55254179 487.90424161 -395.56479851 517.38415866 -388.59790039 543.67919922 C-387.19720146 549.11613022 -386.04606958 554.59827568 -385.0625 560.125 C-384.21772566 564.39471218 -382.78525643 568.01750488 -381 572 C-380.04971547 574.805797 -379.14526631 577.62295819 -378.2578125 580.44921875 C-376.38907307 585.72463535 -374.1900591 590.85105579 -372 596 C-371.32275879 597.59533569 -371.32275879 597.59533569 -370.63183594 599.22290039 C-364.57822381 613.37380205 -358.2867474 627.0161904 -350 640 C-349.36320312 641.01835938 -348.72640625 642.03671875 -348.0703125 643.0859375 C-346.93518776 644.88700209 -345.79002574 646.68179746 -344.6328125 648.46875 C-343.52522323 650.18577834 -342.43720144 651.91555747 -341.3671875 653.65625 C-333.74391547 665.99531356 -324.48628918 677.0670694 -315 688 C-314.20335937 688.92167969 -313.40671875 689.84335937 -312.5859375 690.79296875 C-308.6309673 695.28478199 -304.59322383 699.44015788 -300.015625 703.296875 C-297.87619773 705.10460812 -295.81768855 706.98581694 -293.75 708.875 C-266.2810088 733.16730515 -232.3225745 744.37086164 -197 752 C-196.16227051 752.18159668 -195.32454102 752.36319336 -194.46142578 752.55029297 C-185.16361687 754.54100772 -175.83826931 756.25870376 -166.4375 757.6875 C-165.6530249 757.80689941 -164.8685498 757.92629883 -164.06030273 758.04931641 C-154.33264398 759.46756985 -144.66836076 760.15954986 -134.83984375 760.203125 C-133.8104921 760.20882507 -132.78114044 760.21452515 -131.72059631 760.22039795 C-129.55503342 760.2297792 -127.38945669 760.23635428 -125.22387695 760.24023438 C-121.96995112 760.24990357 -118.71666794 760.28097926 -115.46289062 760.3125 C-92.28449317 760.42943769 -73.01430222 757.23817702 -53 745 C-51.67059795 744.20308324 -50.3411703 743.40620919 -49.01171875 742.609375 C-40.20707342 737.27373879 -32.02906548 731.43388691 -24 725 C-23.14019531 724.33355469 -22.28039062 723.66710937 -21.39453125 722.98046875 C-5.84074171 710.83911635 8.98420455 696.66787586 21 681 C21.75925781 680.01128906 22.51851562 679.02257812 23.30078125 678.00390625 C40.82527878 654.88335069 55.4082173 629.63624435 65.98120117 602.57177734 C67.11284221 599.71514982 68.31107669 596.89078024 69.51171875 594.0625 C92.96592035 537.82256642 102.06202431 468.81499724 78.75 411.3125 C77.84985783 409.20121148 76.934148 407.09646432 76 405 C75.44078135 403.70265184 74.88349277 402.40447005 74.328125 401.10546875 C73.88984375 400.08066406 73.4515625 399.05585938 73 398 C72.34 398 71.68 398 71 398 C70.87238281 397.00419922 70.87238281 397.00419922 70.7421875 395.98828125 C69.76273498 392.04469609 68.03600631 388.7571002 66.125 385.1875 C65.73006348 384.44628906 65.33512695 383.70507812 64.92822266 382.94140625 C58.73003434 371.57123569 51.11499233 361.07179899 43 351 C42.42378906 350.25105469 41.84757812 349.50210937 41.25390625 348.73046875 C37.1080474 343.39515352 32.69216016 338.34965081 28.125 333.375 C27.55313965 332.74634033 26.9812793 332.11768066 26.39208984 331.4699707 C24.97028803 329.93963277 23.48967298 328.46435276 22 327 C21.34 327 20.68 327 20 327 C18.63844269 337.68967335 17.73224783 348.3698436 17.0625 359.125 C16.38626035 369.98343729 15.49992275 380.79814544 14.4375 391.625 C13.28199182 403.41111271 12.41253573 415.1644921 12 427 C11.34 427 10.68 427 10 427 C9.74605469 425.85144531 9.49210937 424.70289063 9.23046875 423.51953125 C8.88284223 421.95051425 8.53518425 420.38150421 8.1875 418.8125 C8.02185547 418.06291016 7.85621094 417.31332031 7.68554688 416.54101562 C7.51474609 415.77080078 7.34394531 415.00058594 7.16796875 414.20703125 C6.89484863 412.96856445 6.89484863 412.96856445 6.61621094 411.70507812 C6.18063862 409.79297776 5.72342015 407.88574741 5.25097656 405.98242188 C3.29148955 397.97408365 2.16545806 390.07600241 1.375 381.875 C1.25382812 380.69035156 1.13265625 379.50570313 1.0078125 378.28515625 C0.76984305 375.93908788 0.53870799 373.59231537 0.31469727 371.24487305 C0.12526461 369.29161514 -0.07618831 367.33939238 -0.30102539 365.38989258 C-1.23560141 356.82670408 -1.18608185 348.24563785 -1.18530273 339.6418457 C-1.18747567 336.96744531 -1.2056495 334.29346771 -1.22460938 331.61914062 C-1.26192369 320.27165983 -0.50142804 309.24284247 1 298 C1.13639893 296.91033936 1.27279785 295.82067871 1.41333008 294.69799805 C1.76258928 291.9217698 2.12778147 289.14823257 2.5 286.375 C2.74008838 284.57037962 2.97965882 282.76569027 3.21875 280.9609375 C3.34531982 280.01508789 3.47188965 279.06923828 3.60229492 278.09472656 C3.88222333 275.91647455 4.14373863 273.73581649 4.3918457 271.55371094 C5.79678391 259.43835913 7.96193921 247.48839401 10.1875 235.5 C10.38564301 234.42506287 10.58378601 233.35012573 10.78793335 232.24261475 C13.91343888 215.31139274 17.34952339 198.48414682 21.17773438 181.69873047 C21.94817849 178.23310446 22.67924188 174.76197615 23.39857483 171.28552246 C25.66498997 160.3413515 28.2128018 149.47908352 30.875 138.625 C31.09343567 137.7305719 31.31187134 136.8361438 31.53692627 135.91461182 C34.55848119 123.55781749 37.74888188 111.28020189 41.38720703 99.08886719 C42.41824637 95.57429643 43.36982963 92.03913318 44.3125 88.5 C44.61800781 87.3553125 44.92351562 86.210625 45.23828125 85.03125 C46.88598797 78.47422223 47.21587093 72.43225771 47.25 65.6875 C47.270625 64.68009766 47.29125 63.67269531 47.3125 62.63476562 C47.36479892 52.5999108 44.54249632 44.72571374 38 37 C27.01643568 26.73633222 13.33473728 24.22236392 -1.15234375 24.33569336 C-28.47767178 25.37924441 -52.86889524 40.85438114 -70.01953125 61.421875 Z " fill="#020202" transform="translate(589,31)"/>
<path d="M0 0 C4.59170876 1.29141809 7.33110486 3.96040608 10.77734375 7.078125 C14.61343955 10.39510063 18.80652711 13.15945778 23 16 C23.89332031 16.639375 24.78664063 17.27875 25.70703125 17.9375 C52.54599006 36.73578578 86.51598463 44.22200256 118 51 C118.77811035 51.17015625 119.5562207 51.3403125 120.35791016 51.515625 C129.36083793 53.45903439 138.29700109 54.54512235 147.4699707 55.26660156 C151.6348833 55.60685771 155.63057491 56.09305091 159.7097168 57.01416016 C164.73630399 58.03956607 169.53363891 58.30559121 174.65234375 58.30078125 C175.54262772 58.30628998 176.43291168 58.31179871 177.35017395 58.31747437 C180.21278073 58.3290827 183.07489348 58.3228926 185.9375 58.3125 C186.91344116 58.31134186 187.88938232 58.31018372 188.89489746 58.30899048 C216.97904138 58.53127244 216.97904138 58.53127244 244 52 C245.32 52 246.64 52 248 52 C248.56726878 60.86199899 248.83593459 67.93112149 243 75 C234.80292661 83.89967968 224.32582338 89.2684323 213.25 93.75 C212.57267822 94.03174072 211.89535645 94.31348145 211.19750977 94.60375977 C197.88308487 99.7433333 184.10214471 100.52565028 170 100.375 C169.18931061 100.36935028 168.37862122 100.36370056 167.54336548 100.35787964 C130.28720419 100.05531052 92.80990291 91.83374947 58.27099609 77.91235352 C56.48818075 77.1961225 54.69844081 76.49712486 52.90625 75.8046875 C51.71515625 75.34449219 51.71515625 75.34449219 50.5 74.875 C49.6853125 74.56304688 48.870625 74.25109375 48.03125 73.9296875 C46 73 46 73 44 71 C43.030625 70.608125 42.06125 70.21625 41.0625 69.8125 C31.92116272 66.00360947 24.66855549 60.20510594 18 53 C17.154375 52.175 16.30875 51.35 15.4375 50.5 C14.633125 49.675 13.82875 48.85 13 48 C12.20142578 47.23042969 12.20142578 47.23042969 11.38671875 46.4453125 C5.38814088 40.24722539 2.3253083 32.83509318 -1 25 C-1.38929688 24.15566406 -1.77859375 23.31132813 -2.1796875 22.44140625 C-4.21756064 16.37630761 -4.04226489 8.57928924 -1.5 2.6875 C-1.005 1.800625 -0.51 0.91375 0 0 Z " fill="#FBFBFB" transform="translate(277,755)"/>
<path d="M0 0 C0 0.66 0 1.32 0 2 C0.5775 2.061875 1.155 2.12375 1.75 2.1875 C5.09599977 3.39577769 6.1891409 4.96034366 8 8 C8.57298048 12.74755259 8.00776044 16.22647559 6.62109375 20.765625 C4.76757529 27.39816772 3.84311711 34.12048998 2.9230957 40.93045044 C1.00304933 55.06563211 -1.41486339 69.02215587 -4.37060547 82.98046875 C-5.26056347 87.25005778 -6.09001779 91.5309141 -6.92504883 95.81152344 C-8.98143739 106.29902636 -11.19482509 116.68452361 -14 127 C-14.29310059 128.09940918 -14.58620117 129.19881836 -14.88818359 130.33154297 C-15.73686882 133.49927613 -16.59755912 136.66326241 -17.47079468 139.8243103 C-17.99077137 141.71641857 -18.499035 143.61173323 -19.00708008 145.50708008 C-19.33474365 146.6752124 -19.66240723 147.84334473 -20 149.046875 C-20.28875 150.09713867 -20.5775 151.14740234 -20.875 152.22949219 C-22.61299016 156.50959468 -25.21785683 158.47857122 -29 161 C-32.96869102 161.5291588 -34.71621958 161.15826216 -38.25 159.1875 C-40.99292166 157.00563049 -42.79950147 155.48085488 -43.28388977 151.90322876 C-43.28000493 145.30943724 -42.17660429 139.44046397 -40.48046875 133.0859375 C-40.22123123 132.0726236 -39.96199371 131.05930969 -39.69490051 130.01528931 C-38.87034592 126.79883244 -38.02999852 123.58679883 -37.1875 120.375 C-36.09071596 116.15541468 -35.00122806 111.9340147 -33.91796875 107.7109375 C-33.65660126 106.69400818 -33.39523376 105.67707886 -33.12594604 104.6293335 C-31.32362488 97.52279915 -29.83983287 90.41758893 -28.57763672 83.19750977 C-28.11376562 80.62974991 -27.57487633 78.14701504 -26.90234375 75.62890625 C-25.77500241 71.09513956 -25.16842229 66.5650455 -24.5625 61.9375 C-23.56095893 54.61424693 -22.34981764 47.40149579 -20.81640625 40.16796875 C-20.12572387 36.78816118 -19.56745917 33.39528498 -19.02734375 29.98828125 C-18.85710693 28.91940674 -18.68687012 27.85053223 -18.51147461 26.74926758 C-18.17775167 24.62921095 -17.85139497 22.50797782 -17.53344727 20.38549805 C-16.35323775 12.9194033 -15.17129621 6.01417817 -9 1 C-5.8035914 -0.06546953 -3.34252724 -0.07427838 0 0 Z " fill="#050505" transform="translate(462,592)"/>
<path d="M0 0 C3.0356227 1.12075866 5.03368843 2.41305322 7 5 C9.24574519 11.35003814 7.84929864 15.7075457 5.1027832 21.56005859 C3.28369361 25.58484968 1.91783623 29.75821306 0.5 33.9375 C-1.55860753 39.91204379 -3.63107492 45.8520798 -6.0625 51.6875 C-6.7486638 53.38003736 -7.38815976 55.09169932 -8 56.8125 C-11.38457587 66.21409963 -15.95451681 74.81175912 -20.70361328 83.58349609 C-21.96014253 85.92570447 -23.18659495 88.28093852 -24.40234375 90.64453125 C-34.84882209 110.89921473 -34.84882209 110.89921473 -41 115 C-44.41125792 115.60130648 -47.59317466 115.64115692 -51 115 C-53.86890102 112.8887997 -55.41311435 110.17377131 -57 107 C-57.40778576 102.22368296 -56.54462616 99.44051354 -54.21875 95.2890625 C-53.62779541 94.21712646 -53.03684082 93.14519043 -52.42797852 92.04077148 C-51.79174561 90.91356689 -51.1555127 89.7863623 -50.5 88.625 C-49.52491824 86.86122352 -48.55485568 85.09474506 -47.58485413 83.32817078 C-46.63341375 81.59663998 -45.67781716 79.86739506 -44.72216797 78.13818359 C-38.62269163 67.02354384 -33.46317802 55.67011389 -28.76855469 43.89990234 C-27.7037492 41.26765448 -26.5659457 38.66798769 -25.4375 36.0625 C-23.02213098 30.31805328 -21.09209328 24.43537248 -19.23022461 18.49243164 C-12.55997475 -2.34312134 -12.55997475 -2.34312134 0 0 Z " fill="#050505" transform="translate(528,640)"/>
<path d="M0 0 C3.33600367 2.05838525 4.8262176 3.7393264 7 7 C7.19705957 9.47105267 7.27968642 11.82596587 7.265625 14.296875 C7.26835419 15.03030121 7.27108337 15.76372742 7.27389526 16.51937866 C7.27797001 18.92976529 7.26524891 21.33966279 7.25 23.75 C7.24756287 24.5722406 7.24512573 25.3944812 7.24261475 26.24163818 C7.20219717 37.89122669 6.86393782 49.49885478 6.125 61.125 C6.04668945 62.36604492 5.96837891 63.60708984 5.88769531 64.88574219 C5.44162002 71.11541438 4.69221776 77.14077188 3.48632812 83.26660156 C2.96241897 86.21122348 2.62540888 89.1378595 2.32421875 92.11328125 C2.21787109 93.13357422 2.11152344 94.15386719 2.00195312 95.20507812 C1.79047563 97.2948961 1.5927856 99.38615064 1.40820312 101.47851562 C0.70997318 107.90141448 -0.13406457 111.60519901 -5 116 C-8.65288193 117.21762731 -11.15754136 117.39075851 -15 117 C-17.97551795 115.22396702 -20.42755188 113.14489623 -22 110 C-21.98773543 107.35698464 -21.89973736 104.76140829 -21.75 102.125 C-21.70552734 101.28332275 -21.66105469 100.44164551 -21.61523438 99.57446289 C-21.32399566 94.68963517 -20.89111933 89.84568417 -20.296875 84.98828125 C-18.28096502 68.5082799 -17.54076254 52.24506603 -17.29101562 35.65600586 C-16.86209487 7.29110324 -16.86209487 7.29110324 -12 2 C-7.97756025 -0.6816265 -4.72734998 -0.68957829 0 0 Z " fill="#060606" transform="translate(378,630)"/>
</svg>
